<svg viewBox="0 0 128 77" fill="none" xmlns="http://www.w3.org/2000/svg">
    <path d="M76.7917 42.5835H75.2917C75.2917 43.4119 75.9632 44.0835 76.7917 44.0835V42.5835ZM80.9572 59.7226C80.2402 60.1374 79.9951 61.055 80.4099 61.7721C80.8247 62.4892 81.7423 62.7342 82.4594 62.3194L80.9572 59.7226ZM54.7922 44.4914C55.5799 44.748 56.4264 44.3175 56.683 43.5298C56.9396 42.7421 56.5091 41.8955 55.7214 41.6389L54.7922 44.4914ZM46.5406 62.3194C47.2577 62.7342 48.1753 62.4892 48.5901 61.7721C49.0049 61.055 48.7598 60.1374 48.0428 59.7226L46.5406 62.3194ZM64.5 47.5002L65.5607 46.4395C65.2794 46.1582 64.8978 46.0002 64.5 46.0002C64.1022 46.0002 63.7206 46.1582 63.4393 46.4395L64.5 47.5002ZM63 69.6252C63 70.4536 63.6716 71.1252 64.5 71.1252C65.3284 71.1252 66 70.4536 66 69.6252H63ZM70.8143 55.9358C71.4001 56.5216 72.3499 56.5216 72.9357 55.9358C73.5214 55.35 73.5214 54.4003 72.9357 53.8145L70.8143 55.9358ZM56.0643 53.8145C55.4786 54.4003 55.4786 55.35 56.0643 55.9358C56.6501 56.5216 57.5999 56.5216 58.1857 55.9358L56.0643 53.8145ZM53.7083 40.1252C53.7083 34.1651 58.5399 29.3335 64.5 29.3335V26.3335C56.8831 26.3335 50.7083 32.5082 50.7083 40.1252H53.7083ZM64.5 29.3335C70.4601 29.3335 75.2917 34.1651 75.2917 40.1252H78.2917C78.2917 32.5082 72.1169 26.3335 64.5 26.3335V29.3335ZM75.2917 40.1252V42.5835H78.2917V40.1252H75.2917ZM50.7083 40.1252V42.5835H53.7083V40.1252H50.7083ZM76.7917 44.0835C81.394 44.0835 85.125 47.8145 85.125 52.4168H88.125C88.125 46.1576 83.0509 41.0835 76.7917 41.0835V44.0835ZM85.125 52.4168C85.125 55.514 83.4391 58.2869 80.9572 59.7226L82.4594 62.3194C85.856 60.3546 88.125 56.5991 88.125 52.4168H85.125ZM43.875 52.4168C43.875 47.8145 47.606 44.0835 52.2083 44.0835V41.0835C45.9491 41.0835 40.875 46.1576 40.875 52.4168H43.875ZM52.2083 44.0835C53.1127 44.0835 53.9806 44.227 54.7922 44.4914L55.7214 41.6389C54.6135 41.278 53.4321 41.0835 52.2083 41.0835V44.0835ZM48.0428 59.7226C45.5609 58.2869 43.875 55.514 43.875 52.4168H40.875C40.875 56.5991 43.144 60.3546 46.5406 62.3194L48.0428 59.7226ZM63 47.5002V69.6252H66V47.5002H63ZM72.9357 53.8145L65.5607 46.4395L63.4393 48.5608L70.8143 55.9358L72.9357 53.8145ZM63.4393 46.4395L56.0643 53.8145L58.1857 55.9358L65.5607 48.5608L63.4393 46.4395Z" fill="#EDEDED"/>
    <path d="M110.792 24.5835H109.292C109.292 25.4119 109.963 26.0835 110.792 26.0835V24.5835ZM114.957 41.7226C114.24 42.1374 113.995 43.055 114.41 43.7721C114.825 44.4892 115.742 44.7342 116.459 44.3194L114.957 41.7226ZM88.7922 26.4914C89.5799 26.748 90.4264 26.3175 90.683 25.5298C90.9396 24.7421 90.5091 23.8955 89.7214 23.6389L88.7922 26.4914ZM80.5406 44.3194C81.2577 44.7342 82.1753 44.4892 82.5901 43.7721C83.0049 43.055 82.7598 42.1374 82.0428 41.7226L80.5406 44.3194ZM98.5 29.5002L99.5607 28.4395C99.2794 28.1582 98.8978 28.0002 98.5 28.0002C98.1022 28.0002 97.7206 28.1582 97.4393 28.4395L98.5 29.5002ZM97 51.6252C97 52.4536 97.6716 53.1252 98.5 53.1252C99.3284 53.1252 100 52.4536 100 51.6252H97ZM104.814 37.9358C105.4 38.5216 106.35 38.5216 106.936 37.9358C107.521 37.35 107.521 36.4003 106.936 35.8145L104.814 37.9358ZM90.0643 35.8145C89.4786 36.4003 89.4786 37.35 90.0643 37.9358C90.6501 38.5216 91.5999 38.5216 92.1857 37.9358L90.0643 35.8145ZM87.7083 22.1252C87.7083 16.1651 92.5399 11.3335 98.5 11.3335V8.3335C90.8831 8.3335 84.7083 14.5082 84.7083 22.1252H87.7083ZM98.5 11.3335C104.46 11.3335 109.292 16.1651 109.292 22.1252H112.292C112.292 14.5082 106.117 8.3335 98.5 8.3335V11.3335ZM109.292 22.1252V24.5835H112.292V22.1252H109.292ZM84.7083 22.1252V24.5835H87.7083V22.1252H84.7083ZM110.792 26.0835C115.394 26.0835 119.125 29.8145 119.125 34.4168H122.125C122.125 28.1576 117.051 23.0835 110.792 23.0835V26.0835ZM119.125 34.4168C119.125 37.514 117.439 40.2869 114.957 41.7226L116.459 44.3194C119.856 42.3546 122.125 38.5991 122.125 34.4168H119.125ZM77.875 34.4168C77.875 29.8145 81.606 26.0835 86.2083 26.0835V23.0835C79.9491 23.0835 74.875 28.1576 74.875 34.4168H77.875ZM86.2083 26.0835C87.1127 26.0835 87.9806 26.227 88.7922 26.4914L89.7214 23.6389C88.6135 23.278 87.4321 23.0835 86.2083 23.0835V26.0835ZM82.0428 41.7226C79.5609 40.2869 77.875 37.514 77.875 34.4168H74.875C74.875 38.5991 77.144 42.3546 80.5406 44.3194L82.0428 41.7226ZM97 29.5002V51.6252H100V29.5002H97ZM106.936 35.8145L99.5607 28.4395L97.4393 30.5608L104.814 37.9358L106.936 35.8145ZM97.4393 28.4395L90.0643 35.8145L92.1857 37.9358L99.5607 30.5608L97.4393 28.4395Z" fill="#EDEDED"/>
    <path d="M41.7917 24.5835H40.2917C40.2917 25.4119 40.9632 26.0835 41.7917 26.0835V24.5835ZM45.9572 41.7226C45.2402 42.1374 44.9951 43.055 45.4099 43.7721C45.8247 44.4892 46.7423 44.7342 47.4594 44.3194L45.9572 41.7226ZM19.7922 26.4914C20.5799 26.748 21.4264 26.3175 21.683 25.5298C21.9396 24.7421 21.5091 23.8955 20.7214 23.6389L19.7922 26.4914ZM11.5406 44.3194C12.2577 44.7342 13.1753 44.4892 13.5901 43.7721C14.0049 43.055 13.7598 42.1374 13.0428 41.7226L11.5406 44.3194ZM29.5 29.5002L30.5607 28.4395C30.2794 28.1582 29.8978 28.0002 29.5 28.0002C29.1022 28.0002 28.7206 28.1582 28.4393 28.4395L29.5 29.5002ZM28 51.6252C28 52.4536 28.6716 53.1252 29.5 53.1252C30.3284 53.1252 31 52.4536 31 51.6252H28ZM35.8143 37.9358C36.4001 38.5216 37.3499 38.5216 37.9357 37.9358C38.5214 37.35 38.5214 36.4003 37.9357 35.8145L35.8143 37.9358ZM21.0643 35.8145C20.4786 36.4003 20.4786 37.35 21.0643 37.9358C21.6501 38.5216 22.5999 38.5216 23.1857 37.9358L21.0643 35.8145ZM18.7083 22.1252C18.7083 16.1651 23.5399 11.3335 29.5 11.3335V8.3335C21.8831 8.3335 15.7083 14.5082 15.7083 22.1252H18.7083ZM29.5 11.3335C35.4601 11.3335 40.2917 16.1651 40.2917 22.1252H43.2917C43.2917 14.5082 37.1169 8.3335 29.5 8.3335V11.3335ZM40.2917 22.1252V24.5835H43.2917V22.1252H40.2917ZM15.7083 22.1252V24.5835H18.7083V22.1252H15.7083ZM41.7917 26.0835C46.394 26.0835 50.125 29.8145 50.125 34.4168H53.125C53.125 28.1576 48.0509 23.0835 41.7917 23.0835V26.0835ZM50.125 34.4168C50.125 37.514 48.4391 40.2869 45.9572 41.7226L47.4594 44.3194C50.856 42.3546 53.125 38.5991 53.125 34.4168H50.125ZM8.875 34.4168C8.875 29.8145 12.606 26.0835 17.2083 26.0835V23.0835C10.9491 23.0835 5.875 28.1576 5.875 34.4168H8.875ZM17.2083 26.0835C18.1127 26.0835 18.9806 26.227 19.7922 26.4914L20.7214 23.6389C19.6135 23.278 18.4321 23.0835 17.2083 23.0835V26.0835ZM13.0428 41.7226C10.5609 40.2869 8.875 37.514 8.875 34.4168H5.875C5.875 38.5991 8.14404 42.3546 11.5406 44.3194L13.0428 41.7226ZM28 29.5002V51.6252H31V29.5002H28ZM37.9357 35.8145L30.5607 28.4395L28.4393 30.5608L35.8143 37.9358L37.9357 35.8145ZM28.4393 28.4395L21.0643 35.8145L23.1857 37.9358L30.5607 30.5608L28.4393 28.4395Z" fill="#EDEDED"/>
</svg>
