<svg viewBox="0 0 196 67" fill="none" xmlns="http://www.w3.org/2000/svg">
    <circle cx="97.6" cy="23" r="18.75" fill="#7D7D7D" stroke="#7E7E7E" stroke-width="0.5"/>
    <rect x="2.25" y="22.25" width="191.5" height="38.5" rx="5.75" fill="#7D7D7D" stroke="#7E7E7E" stroke-width="0.5"/>
    <g filter="url(#filter0_d_314_548)">
        <rect x="4" y="24" width="188" height="35" rx="6" fill="#3E3E3E"/>
        <rect x="4.1" y="24.1" width="187.8" height="34.8" rx="5.9" stroke="#940000" stroke-width="0.2"/>
    </g>
    <g filter="url(#filter1_d_314_548)">
        <circle cx="97.5909" cy="22.1364" r="16.1364" fill="#3E3E3E"/>
        <circle cx="97.5909" cy="22.1364" r="16.0364" stroke="#940000" stroke-width="0.2"/>
    </g>
    <rect x="79.303" y="24.7178" width="35.5" height="13.9848" fill="#3E3E3E"/>
    <path d="M106.197 24.2875V27.5148C106.197 28.703 105.234 29.6663 104.045 29.6663H91.1364C89.9481 29.6663 88.9848 28.703 88.9848 27.5148L88.9848 24.2875M93.2879 19.9845L97.5909 24.2875M97.5909 24.2875L101.894 19.9845M97.5909 24.2875V11.3784" stroke="white" stroke-width="1.5" stroke-linecap="round" stroke-linejoin="round"/>
    <path d="M26.8362 48.82V36.94C26.8362 36.82 26.8962 36.76 27.0162 36.76H28.2582C28.3782 36.76 28.4382 36.82 28.4382 36.94V48.82C28.4382 48.94 28.3782 49 28.2582 49H27.0162C26.8962 49 26.8362 48.94 26.8362 48.82ZM38.1733 49H37.0213C36.9013 49 36.8413 48.94 36.8413 48.82V43.78C36.8413 42.316 36.1993 41.584 34.9153 41.584C34.3273 41.584 33.8473 41.776 33.4753 42.16C33.1153 42.544 32.9353 43.054 32.9353 43.69V48.82C32.9353 48.94 32.8753 49 32.7553 49H31.6033C31.4833 49 31.4233 48.94 31.4233 48.82V40.558C31.4233 40.438 31.4833 40.378 31.6033 40.378H32.7553C32.8753 40.378 32.9353 40.438 32.9353 40.558V41.35H32.9533C33.4333 40.57 34.2373 40.18 35.3653 40.18C36.2893 40.18 37.0153 40.474 37.5433 41.062C38.0833 41.65 38.3533 42.436 38.3533 43.42V48.82C38.3533 48.94 38.2933 49 38.1733 49ZM42.8343 49H41.6823C41.5623 49 41.5023 48.94 41.5023 48.82V41.71C41.5023 41.638 41.4663 41.602 41.3943 41.602H40.6563C40.5363 41.602 40.4763 41.542 40.4763 41.422V40.558C40.4763 40.438 40.5363 40.378 40.6563 40.378H41.3943C41.4663 40.378 41.5023 40.342 41.5023 40.27V39.532C41.5023 38.536 41.7123 37.828 42.1323 37.408C42.5523 36.976 43.2183 36.76 44.1303 36.76H44.7963C44.9163 36.76 44.9763 36.82 44.9763 36.94V37.984C44.9763 38.104 44.9163 38.164 44.7963 38.164H44.3283C43.7883 38.164 43.4343 38.248 43.2663 38.416C43.0983 38.584 43.0143 38.932 43.0143 39.46V40.27C43.0143 40.342 43.0503 40.378 43.1223 40.378H44.7963C44.9163 40.378 44.9763 40.438 44.9763 40.558V41.422C44.9763 41.542 44.9163 41.602 44.7963 41.602H43.1223C43.0503 41.602 43.0143 41.638 43.0143 41.71V48.82C43.0143 48.94 42.9543 49 42.8343 49ZM52.2196 48.586C51.6316 48.994 50.9176 49.198 50.0776 49.198C49.2376 49.198 48.5176 48.994 47.9176 48.586C47.3296 48.178 46.9156 47.608 46.6756 46.876C46.4836 46.3 46.3876 45.568 46.3876 44.68C46.3876 43.804 46.4836 43.078 46.6756 42.502C46.9036 41.77 47.3176 41.2 47.9176 40.792C48.5176 40.384 49.2376 40.18 50.0776 40.18C50.9176 40.18 51.6376 40.384 52.2376 40.792C52.8376 41.2 53.2516 41.77 53.4796 42.502C53.6716 43.078 53.7676 43.804 53.7676 44.68C53.7676 45.568 53.6716 46.3 53.4796 46.876C53.2396 47.608 52.8196 48.178 52.2196 48.586ZM48.1336 46.444C48.4336 47.344 49.0816 47.794 50.0776 47.794C51.0736 47.794 51.7216 47.344 52.0216 46.444C52.1536 46.012 52.2196 45.424 52.2196 44.68C52.2196 43.948 52.1536 43.366 52.0216 42.934C51.7216 42.034 51.0736 41.584 50.0776 41.584C49.0816 41.584 48.4336 42.034 48.1336 42.934C48.0016 43.366 47.9356 43.948 47.9356 44.68C47.9356 45.424 48.0016 46.012 48.1336 46.444ZM57.5228 49H56.3708C56.2508 49 56.1908 48.94 56.1908 48.82V40.558C56.1908 40.438 56.2508 40.378 56.3708 40.378H57.5228C57.6428 40.378 57.7028 40.438 57.7028 40.558V41.44H57.7208C58.1528 40.6 58.9148 40.18 60.0068 40.18C60.7148 40.18 61.3028 40.396 61.7708 40.828C61.8548 40.912 61.8668 40.996 61.8068 41.08L61.1408 41.962C61.0688 42.058 60.9848 42.07 60.8888 41.998C60.4568 41.722 60.0128 41.584 59.5568 41.584C58.3208 41.584 57.7028 42.424 57.7028 44.104V48.82C57.7028 48.94 57.6428 49 57.5228 49ZM75.7417 49H74.5897C74.4697 49 74.4097 48.94 74.4097 48.82V43.78C74.4097 42.316 73.7677 41.584 72.4837 41.584C71.9077 41.584 71.4337 41.776 71.0617 42.16C70.6897 42.544 70.5037 43.054 70.5037 43.69V48.82C70.5037 48.94 70.4437 49 70.3237 49H69.1717C69.0517 49 68.9917 48.94 68.9917 48.82V43.78C68.9917 42.316 68.3497 41.584 67.0657 41.584C66.4777 41.584 65.9977 41.776 65.6257 42.16C65.2657 42.544 65.0857 43.054 65.0857 43.69V48.82C65.0857 48.94 65.0257 49 64.9057 49H63.7537C63.6337 49 63.5737 48.94 63.5737 48.82V40.558C63.5737 40.438 63.6337 40.378 63.7537 40.378H64.9057C65.0257 40.378 65.0857 40.438 65.0857 40.558V41.35H65.1037C65.5837 40.57 66.3877 40.18 67.5157 40.18C68.6917 40.18 69.5317 40.63 70.0357 41.53H70.0537C70.7017 40.63 71.6317 40.18 72.8437 40.18C73.8277 40.18 74.5837 40.474 75.1117 41.062C75.6517 41.638 75.9217 42.424 75.9217 43.42V48.82C75.9217 48.94 75.8617 49 75.7417 49ZM85.0607 49H83.9987C83.8787 49 83.8187 48.94 83.8187 48.82V48.064H83.8007C83.3447 48.82 82.4927 49.198 81.2447 49.198C80.3807 49.198 79.6787 48.976 79.1387 48.532C78.6107 48.088 78.3467 47.446 78.3467 46.606C78.3467 45.718 78.6347 45.052 79.2107 44.608C79.7987 44.164 80.6327 43.942 81.7127 43.942H83.6747C83.7467 43.942 83.7827 43.906 83.7827 43.834V43.204C83.7827 42.592 83.6327 42.16 83.3327 41.908C83.0327 41.644 82.4927 41.512 81.7127 41.512C80.8967 41.512 80.2007 41.716 79.6247 42.124C79.5167 42.208 79.4327 42.202 79.3727 42.106L78.8867 41.278C78.8387 41.182 78.8507 41.098 78.9227 41.026C79.6427 40.462 80.6207 40.18 81.8567 40.18C83.0807 40.18 83.9507 40.408 84.4667 40.864C84.9827 41.308 85.2407 42.058 85.2407 43.114V48.82C85.2407 48.94 85.1807 49 85.0607 49ZM81.6047 47.902C82.2767 47.902 82.8047 47.752 83.1887 47.452C83.5847 47.152 83.7827 46.738 83.7827 46.21V45.256C83.7827 45.184 83.7467 45.148 83.6747 45.148H81.9467C81.2027 45.148 80.6567 45.262 80.3087 45.49C79.9727 45.706 79.8047 46.06 79.8047 46.552C79.8047 47.452 80.4047 47.902 81.6047 47.902ZM91.2807 49.09H90.6147C89.7867 49.09 89.1927 48.898 88.8327 48.514C88.4727 48.118 88.2927 47.494 88.2927 46.642V41.71C88.2927 41.638 88.2567 41.602 88.1847 41.602H87.4647C87.3447 41.602 87.2847 41.542 87.2847 41.422V40.558C87.2847 40.438 87.3447 40.378 87.4647 40.378H88.1847C88.2567 40.378 88.2927 40.342 88.2927 40.27V37.84C88.2927 37.72 88.3527 37.66 88.4727 37.66H89.6247C89.7447 37.66 89.8047 37.72 89.8047 37.84V40.27C89.8047 40.342 89.8407 40.378 89.9127 40.378H91.2807C91.4007 40.378 91.4607 40.438 91.4607 40.558V41.422C91.4607 41.542 91.4007 41.602 91.2807 41.602H89.9127C89.8407 41.602 89.8047 41.638 89.8047 41.71V46.588C89.8047 47.008 89.8887 47.296 90.0567 47.452C90.2247 47.608 90.5067 47.686 90.9027 47.686H91.2807C91.4007 47.686 91.4607 47.746 91.4607 47.866V48.91C91.4607 49.03 91.4007 49.09 91.2807 49.09ZM95.176 38.434H93.952C93.832 38.434 93.772 38.374 93.772 38.254V36.94C93.772 36.82 93.832 36.76 93.952 36.76H95.176C95.296 36.76 95.356 36.82 95.356 36.94V38.254C95.356 38.374 95.296 38.434 95.176 38.434ZM95.14 49H93.988C93.868 49 93.808 48.94 93.808 48.82V40.558C93.808 40.438 93.868 40.378 93.988 40.378H95.14C95.26 40.378 95.32 40.438 95.32 40.558V48.82C95.32 48.94 95.26 49 95.14 49ZM103.583 48.586C102.995 48.994 102.281 49.198 101.441 49.198C100.601 49.198 99.8809 48.994 99.2809 48.586C98.6929 48.178 98.2789 47.608 98.0389 46.876C97.8469 46.3 97.7509 45.568 97.7509 44.68C97.7509 43.804 97.8469 43.078 98.0389 42.502C98.2669 41.77 98.6809 41.2 99.2809 40.792C99.8809 40.384 100.601 40.18 101.441 40.18C102.281 40.18 103.001 40.384 103.601 40.792C104.201 41.2 104.615 41.77 104.843 42.502C105.035 43.078 105.131 43.804 105.131 44.68C105.131 45.568 105.035 46.3 104.843 46.876C104.603 47.608 104.183 48.178 103.583 48.586ZM99.4969 46.444C99.7969 47.344 100.445 47.794 101.441 47.794C102.437 47.794 103.085 47.344 103.385 46.444C103.517 46.012 103.583 45.424 103.583 44.68C103.583 43.948 103.517 43.366 103.385 42.934C103.085 42.034 102.437 41.584 101.441 41.584C100.445 41.584 99.7969 42.034 99.4969 42.934C99.3649 43.366 99.2989 43.948 99.2989 44.68C99.2989 45.424 99.3649 46.012 99.4969 46.444ZM114.304 49H113.152C113.032 49 112.972 48.94 112.972 48.82V43.78C112.972 42.316 112.33 41.584 111.046 41.584C110.458 41.584 109.978 41.776 109.606 42.16C109.246 42.544 109.066 43.054 109.066 43.69V48.82C109.066 48.94 109.006 49 108.886 49H107.734C107.614 49 107.554 48.94 107.554 48.82V40.558C107.554 40.438 107.614 40.378 107.734 40.378H108.886C109.006 40.378 109.066 40.438 109.066 40.558V41.35H109.084C109.564 40.57 110.368 40.18 111.496 40.18C112.42 40.18 113.146 40.474 113.674 41.062C114.214 41.65 114.484 42.436 114.484 43.42V48.82C114.484 48.94 114.424 49 114.304 49ZM123.127 49H121.885C121.765 49 121.705 48.94 121.705 48.82V36.94C121.705 36.82 121.765 36.76 121.885 36.76H126.241C127.417 36.76 128.359 37.096 129.067 37.768C129.775 38.428 130.129 39.31 130.129 40.414C130.129 41.518 129.775 42.406 129.067 43.078C128.359 43.738 127.417 44.068 126.241 44.068H123.415C123.343 44.068 123.307 44.104 123.307 44.176V48.82C123.307 48.94 123.247 49 123.127 49ZM126.151 42.574C126.907 42.574 127.495 42.382 127.915 41.998C128.335 41.614 128.545 41.086 128.545 40.414C128.545 39.742 128.335 39.214 127.915 38.83C127.495 38.446 126.907 38.254 126.151 38.254H123.415C123.343 38.254 123.307 38.29 123.307 38.362V42.466C123.307 42.538 123.343 42.574 123.415 42.574H126.151ZM138.252 49H137.19C137.07 49 137.01 48.94 137.01 48.82V48.064H136.992C136.536 48.82 135.684 49.198 134.436 49.198C133.572 49.198 132.87 48.976 132.33 48.532C131.802 48.088 131.538 47.446 131.538 46.606C131.538 45.718 131.826 45.052 132.402 44.608C132.99 44.164 133.824 43.942 134.904 43.942H136.866C136.938 43.942 136.974 43.906 136.974 43.834V43.204C136.974 42.592 136.824 42.16 136.524 41.908C136.224 41.644 135.684 41.512 134.904 41.512C134.088 41.512 133.392 41.716 132.816 42.124C132.708 42.208 132.624 42.202 132.564 42.106L132.078 41.278C132.03 41.182 132.042 41.098 132.114 41.026C132.834 40.462 133.812 40.18 135.048 40.18C136.272 40.18 137.142 40.408 137.658 40.864C138.174 41.308 138.432 42.058 138.432 43.114V48.82C138.432 48.94 138.372 49 138.252 49ZM134.796 47.902C135.468 47.902 135.996 47.752 136.38 47.452C136.776 47.152 136.974 46.738 136.974 46.21V45.256C136.974 45.184 136.938 45.148 136.866 45.148H135.138C134.394 45.148 133.848 45.262 133.5 45.49C133.164 45.706 132.996 46.06 132.996 46.552C132.996 47.452 133.596 47.902 134.796 47.902ZM140.782 44.68C140.782 43.804 140.872 43.078 141.052 42.502C141.292 41.758 141.712 41.188 142.312 40.792C142.912 40.384 143.626 40.18 144.454 40.18C145.738 40.18 146.722 40.666 147.406 41.638C147.466 41.734 147.448 41.818 147.352 41.89L146.56 42.538C146.464 42.61 146.38 42.604 146.308 42.52C146.044 42.196 145.774 41.962 145.498 41.818C145.222 41.662 144.874 41.584 144.454 41.584C143.458 41.584 142.816 42.034 142.528 42.934C142.396 43.342 142.33 43.924 142.33 44.68C142.33 45.448 142.396 46.036 142.528 46.444C142.816 47.344 143.458 47.794 144.454 47.794C144.874 47.794 145.222 47.722 145.498 47.578C145.774 47.422 146.044 47.182 146.308 46.858C146.38 46.774 146.464 46.768 146.56 46.84L147.352 47.488C147.448 47.56 147.466 47.644 147.406 47.74C146.722 48.712 145.738 49.198 144.454 49.198C143.626 49.198 142.912 49 142.312 48.604C141.712 48.196 141.292 47.62 141.052 46.876C140.872 46.3 140.782 45.568 140.782 44.68ZM156.868 49H155.536C155.416 49 155.32 48.94 155.248 48.82L152.8 44.806L151.306 46.552V48.82C151.306 48.94 151.246 49 151.126 49H149.974C149.854 49 149.794 48.94 149.794 48.82V36.94C149.794 36.82 149.854 36.76 149.974 36.76H151.126C151.246 36.76 151.306 36.82 151.306 36.94V44.554L154.708 40.54C154.804 40.432 154.912 40.378 155.032 40.378H156.364C156.424 40.378 156.46 40.396 156.472 40.432C156.484 40.468 156.472 40.51 156.436 40.558L153.79 43.636L156.976 48.82C157 48.856 157 48.898 156.976 48.946C156.952 48.982 156.916 49 156.868 49ZM161.999 49.198C161.123 49.198 160.385 48.994 159.785 48.586C159.197 48.178 158.783 47.602 158.543 46.858C158.351 46.258 158.255 45.532 158.255 44.68C158.255 43.744 158.345 43.018 158.525 42.502C158.765 41.758 159.179 41.188 159.767 40.792C160.367 40.384 161.081 40.18 161.909 40.18C162.737 40.18 163.445 40.384 164.033 40.792C164.633 41.2 165.053 41.77 165.293 42.502C165.473 43.066 165.563 43.888 165.563 44.968C165.563 45.088 165.497 45.148 165.365 45.148H159.911C159.839 45.148 159.803 45.184 159.803 45.256C159.803 45.64 159.851 45.988 159.947 46.3C160.295 47.296 161.021 47.794 162.125 47.794C163.049 47.794 163.787 47.476 164.339 46.84C164.435 46.744 164.525 46.732 164.609 46.804L165.347 47.47C165.431 47.542 165.437 47.626 165.365 47.722C164.585 48.706 163.463 49.198 161.999 49.198ZM159.911 43.942H163.907C163.979 43.942 164.015 43.906 164.015 43.834C164.015 43.438 163.973 43.114 163.889 42.862C163.589 41.962 162.929 41.512 161.909 41.512C160.889 41.512 160.229 41.962 159.929 42.862C159.845 43.114 159.803 43.438 159.803 43.834C159.803 43.906 159.839 43.942 159.911 43.942ZM171.156 49.09H170.49C169.662 49.09 169.068 48.898 168.708 48.514C168.348 48.118 168.168 47.494 168.168 46.642V41.71C168.168 41.638 168.132 41.602 168.06 41.602H167.34C167.22 41.602 167.16 41.542 167.16 41.422V40.558C167.16 40.438 167.22 40.378 167.34 40.378H168.06C168.132 40.378 168.168 40.342 168.168 40.27V37.84C168.168 37.72 168.228 37.66 168.348 37.66H169.5C169.62 37.66 169.68 37.72 169.68 37.84V40.27C169.68 40.342 169.716 40.378 169.788 40.378H171.156C171.276 40.378 171.336 40.438 171.336 40.558V41.422C171.336 41.542 171.276 41.602 171.156 41.602H169.788C169.716 41.602 169.68 41.638 169.68 41.71V46.588C169.68 47.008 169.764 47.296 169.932 47.452C170.1 47.608 170.382 47.686 170.778 47.686H171.156C171.276 47.686 171.336 47.746 171.336 47.866V48.91C171.336 49.03 171.276 49.09 171.156 49.09Z" fill="white"/>
    <line x1="113" y1="24.7002" x2="115" y2="24.7002" stroke="#3E3E3E"/>
    <line x1="113" y1="24.7002" x2="115" y2="24.7002" stroke="#3E3E3E"/>
    <line x1="81" y1="24.7002" x2="83" y2="24.7002" stroke="#3E3E3E"/>
    <line x1="81" y1="24.7002" x2="83" y2="24.7002" stroke="#3E3E3E"/>
    <defs>
        <filter id="filter0_d_314_548" x="0" y="24" width="196" height="43" filterUnits="userSpaceOnUse" color-interpolation-filters="sRGB">
            <feFlood flood-opacity="0" result="BackgroundImageFix"/>
            <feColorMatrix in="SourceAlpha" type="matrix" values="0 0 0 0 0 0 0 0 0 0 0 0 0 0 0 0 0 0 127 0" result="hardAlpha"/>
            <feOffset dy="4"/>
            <feGaussianBlur stdDeviation="2"/>
            <feComposite in2="hardAlpha" operator="out"/>
            <feColorMatrix type="matrix" values="0 0 0 0 0 0 0 0 0 0 0 0 0 0 0 0 0 0 0.25 0"/>
            <feBlend mode="normal" in2="BackgroundImageFix" result="effect1_dropShadow_314_548"/>
            <feBlend mode="normal" in="SourceGraphic" in2="effect1_dropShadow_314_548" result="shape"/>
        </filter>
        <filter id="filter1_d_314_548" x="77.4545" y="0" width="40.2727" height="40.2729" filterUnits="userSpaceOnUse" color-interpolation-filters="sRGB">
            <feFlood flood-opacity="0" result="BackgroundImageFix"/>
            <feColorMatrix in="SourceAlpha" type="matrix" values="0 0 0 0 0 0 0 0 0 0 0 0 0 0 0 0 0 0 127 0" result="hardAlpha"/>
            <feOffset dy="-2"/>
            <feGaussianBlur stdDeviation="2"/>
            <feComposite in2="hardAlpha" operator="out"/>
            <feColorMatrix type="matrix" values="0 0 0 0 0 0 0 0 0 0 0 0 0 0 0 0 0 0 0.25 0"/>
            <feBlend mode="normal" in2="BackgroundImageFix" result="effect1_dropShadow_314_548"/>
            <feBlend mode="normal" in="SourceGraphic" in2="effect1_dropShadow_314_548" result="shape"/>
        </filter>
    </defs>
</svg>
