<svg viewBox="0 0 95 95" fill="none" xmlns="http://www.w3.org/2000/svg">
    <path d="M79.1667 79.1667L62.5547 62.5548M71.25 41.5625C71.25 25.1665 57.9585 11.875 41.5625 11.875C25.1665 11.875 11.875 25.1665 11.875 41.5625C11.875 57.9585 25.1665 71.25 41.5625 71.25C57.9585 71.25 71.25 57.9585 71.25 41.5625Z"
          stroke="#EDEDED" stroke-width="3" stroke-linecap="round" stroke-linejoin="round"/>
    <path d="M19.8987 54.561H18.3987C18.3987 55.3894 19.0702 56.061 19.8987 56.061V54.561ZM23.75 56.061C24.5784 56.061 25.25 55.3894 25.25 54.561C25.25 53.7326 24.5784 53.061 23.75 53.061V56.061ZM26.0496 46.6279C26.8518 46.4215 27.3348 45.6037 27.1283 44.8014C26.9218 43.9991 26.1041 43.5161 25.3018 43.7226L26.0496 46.6279ZM29.0272 40.2412C29.8082 40.5172 30.6652 40.1079 30.9413 39.3268C31.2174 38.5457 30.808 37.6887 30.0269 37.4127L29.0272 40.2412ZM30.0269 29.3446C30.808 29.0685 31.2174 28.2115 30.9413 27.4304C30.6652 26.6494 29.8082 26.24 29.0272 26.516L30.0269 29.3446ZM62.2635 54.561V56.061C63.0919 56.061 63.7635 55.3894 63.7635 54.561H62.2635ZM58.4122 53.061C57.5837 53.061 56.9122 53.7326 56.9122 54.561C56.9122 55.3894 57.5837 56.061 58.4122 56.061V53.061ZM56.8604 43.7226C56.0581 43.5161 55.2403 43.9991 55.0338 44.8014C54.8273 45.6037 55.3103 46.4215 56.1126 46.6279L56.8604 43.7226ZM53.135 26.516C52.3539 26.24 51.4969 26.6494 51.2209 27.4304C50.9448 28.2115 51.3542 29.0685 52.1353 29.3446L53.135 26.516ZM52.1353 37.4127C51.3542 37.6887 50.9448 38.5457 51.2209 39.3268C51.4969 40.1079 52.3539 40.5172 53.135 40.2412L52.1353 37.4127ZM52.6351 54.561V56.061C53.4636 56.061 54.1351 55.3894 54.1351 54.561H52.6351ZM29.527 54.561H28.027C28.027 55.3894 28.6986 56.061 29.527 56.061V54.561ZM18.3987 52.6353V54.561H21.3987V52.6353H18.3987ZM19.8987 56.061H23.75V53.061H19.8987V56.061ZM21.3987 52.6353C21.3987 49.7472 23.374 47.3166 26.0496 46.6279L25.3018 43.7226C21.3329 44.7442 18.3987 48.3452 18.3987 52.6353H21.3987ZM24.1757 33.3786C24.1757 36.5494 26.2028 39.2429 29.0272 40.2412L30.0269 37.4127C28.3637 36.8248 27.1757 35.2385 27.1757 33.3786H24.1757ZM29.0272 26.516C26.2028 27.5143 24.1757 30.2078 24.1757 33.3786H27.1757C27.1757 31.5187 28.3637 29.9324 30.0269 29.3446L29.0272 26.516ZM60.7635 52.6353V54.561H63.7635V52.6353H60.7635ZM62.2635 53.061H58.4122V56.061H62.2635V53.061ZM63.7635 52.6353C63.7635 48.3452 60.8292 44.7442 56.8604 43.7226L56.1126 46.6279C58.7882 47.3166 60.7635 49.7472 60.7635 52.6353H63.7635ZM52.1353 29.3446C53.7985 29.9324 54.9865 31.5187 54.9865 33.3786H57.9865C57.9865 30.2078 55.9594 27.5143 53.135 26.516L52.1353 29.3446ZM54.9865 33.3786C54.9865 35.2385 53.7985 36.8248 52.1353 37.4127L53.135 40.2412C55.9594 39.2429 57.9865 36.5494 57.9865 33.3786H54.9865ZM37.2297 46.4326H44.9324V43.4326H37.2297V46.4326ZM51.1351 52.6353V54.561H54.1351V52.6353H51.1351ZM31.027 54.561V52.6353H28.027V54.561H31.027ZM44.9324 46.4326C48.3581 46.4326 51.1351 49.2097 51.1351 52.6353H54.1351C54.1351 47.5528 50.0149 43.4326 44.9324 43.4326V46.4326ZM37.2297 43.4326C32.1472 43.4326 28.027 47.5528 28.027 52.6353H31.027C31.027 49.2097 33.8041 46.4326 37.2297 46.4326V43.4326ZM52.6351 53.061H29.527V56.061H52.6351V53.061ZM45.3581 33.3786C45.3581 35.7407 43.4432 37.6556 41.0811 37.6556V40.6556C45.1001 40.6556 48.3581 37.3976 48.3581 33.3786H45.3581ZM41.0811 37.6556C38.7189 37.6556 36.8041 35.7407 36.8041 33.3786H33.8041C33.8041 37.3976 37.0621 40.6556 41.0811 40.6556V37.6556ZM36.8041 33.3786C36.8041 31.0165 38.7189 29.1016 41.0811 29.1016V26.1016C37.0621 26.1016 33.8041 29.3596 33.8041 33.3786H36.8041ZM41.0811 29.1016C43.4432 29.1016 45.3581 31.0165 45.3581 33.3786H48.3581C48.3581 29.3596 45.1001 26.1016 41.0811 26.1016V29.1016Z"
          fill="#EDEDED"/>
</svg>
