<svg viewBox="0 0 213 60" fill="none" xmlns="http://www.w3.org/2000/svg">
    <g filter="url(#filter0_d_16_14)">
        <rect x="8" y="6" width="193" height="40" rx="6" fill="white"/>
        <rect x="8.25" y="6.25" width="192.5" height="39.5" rx="5.75" stroke="#C0C2CA" stroke-width="0.5"/>
    </g>
    <g filter="url(#filter1_d_16_14)">
        <rect x="10" y="8" width="189" height="36" rx="6" fill="#5C6372"/>
        <rect x="10.1" y="8.1" width="188.8" height="35.8" rx="5.9" stroke="#B00D25" stroke-width="0.2"/>
    </g>
    <path d="M43.66 30.82C43.5667 30.7267 43.5667 30.6333 43.66 30.54L44.66 29.68C44.7533 29.6 44.8533 29.6133 44.96 29.72C45.5467 30.28 46.2067 30.56 46.94 30.56C48.62 30.56 49.46 29.5867 49.46 27.64V18.6C49.46 18.4667 49.5267 18.4 49.66 18.4H51.04C51.1733 18.4 51.24 18.4667 51.24 18.6V27.64C51.24 29.12 50.8533 30.2533 50.08 31.04C49.3067 31.8267 48.24 32.22 46.88 32.22C46.24 32.22 45.6267 32.0933 45.04 31.84C44.4533 31.5733 43.9933 31.2333 43.66 30.82ZM60.3642 31.54C59.7109 31.9933 58.9176 32.22 57.9842 32.22C57.0509 32.22 56.2509 31.9933 55.5842 31.54C54.9309 31.0867 54.4709 30.4533 54.2042 29.64C53.9909 29 53.8842 28.1867 53.8842 27.2C53.8842 26.2267 53.9909 25.42 54.2042 24.78C54.4576 23.9667 54.9176 23.3333 55.5842 22.88C56.2509 22.4267 57.0509 22.2 57.9842 22.2C58.9176 22.2 59.7176 22.4267 60.3842 22.88C61.0509 23.3333 61.5109 23.9667 61.7642 24.78C61.9776 25.42 62.0842 26.2267 62.0842 27.2C62.0842 28.1867 61.9776 29 61.7642 29.64C61.4976 30.4533 61.0309 31.0867 60.3642 31.54ZM55.8242 29.16C56.1576 30.16 56.8776 30.66 57.9842 30.66C59.0909 30.66 59.8109 30.16 60.1442 29.16C60.2909 28.68 60.3642 28.0267 60.3642 27.2C60.3642 26.3867 60.2909 25.74 60.1442 25.26C59.8109 24.26 59.0909 23.76 57.9842 23.76C56.8776 23.76 56.1576 24.26 55.8242 25.26C55.6776 25.74 55.6042 26.3867 55.6042 27.2C55.6042 28.0267 55.6776 28.68 55.8242 29.16ZM66.2967 20.26H64.9367C64.8034 20.26 64.7367 20.1933 64.7367 20.06V18.6C64.7367 18.4667 64.8034 18.4 64.9367 18.4H66.2967C66.4301 18.4 66.4967 18.4667 66.4967 18.6V20.06C66.4967 20.1933 66.4301 20.26 66.2967 20.26ZM66.2567 32H64.9767C64.8434 32 64.7767 31.9333 64.7767 31.8V22.62C64.7767 22.4867 64.8434 22.42 64.9767 22.42H66.2567C66.3901 22.42 66.4567 22.4867 66.4567 22.62V31.8C66.4567 31.9333 66.3901 32 66.2567 32ZM77.2377 32H75.9577C75.8243 32 75.7577 31.9333 75.7577 31.8V26.2C75.7577 24.5733 75.0443 23.76 73.6177 23.76C72.9643 23.76 72.431 23.9733 72.0177 24.4C71.6177 24.8267 71.4177 25.3933 71.4177 26.1V31.8C71.4177 31.9333 71.351 32 71.2177 32H69.9377C69.8043 32 69.7377 31.9333 69.7377 31.8V22.62C69.7377 22.4867 69.8043 22.42 69.9377 22.42H71.2177C71.351 22.42 71.4177 22.4867 71.4177 22.62V23.5H71.4377C71.971 22.6333 72.8643 22.2 74.1177 22.2C75.1443 22.2 75.951 22.5267 76.5377 23.18C77.1377 23.8333 77.4377 24.7067 77.4377 25.8V31.8C77.4377 31.9333 77.371 32 77.2377 32ZM89.9613 32.22C88.8146 32.22 87.8413 31.9533 87.0413 31.42C86.2546 30.8733 85.6879 30.08 85.3413 29.04C85.1013 28.32 84.9813 27.04 84.9813 25.2C84.9813 23.36 85.1013 22.08 85.3413 21.36C85.6879 20.32 86.2546 19.5333 87.0413 19C87.8413 18.4533 88.8146 18.18 89.9613 18.18C92.3479 18.18 93.8946 19.24 94.6013 21.36C94.8413 22.08 94.9613 23.36 94.9613 25.2C94.9613 27.04 94.8413 28.32 94.6013 29.04C93.8946 31.16 92.3479 32.22 89.9613 32.22ZM89.9613 30.56C91.4546 30.56 92.4213 29.8867 92.8613 28.54C93.0613 27.9133 93.1613 26.8 93.1613 25.2C93.1613 23.6 93.0613 22.4867 92.8613 21.86C92.4213 20.5133 91.4546 19.84 89.9613 19.84C88.4813 19.84 87.5213 20.5133 87.0813 21.86C86.8813 22.4867 86.7813 23.6 86.7813 25.2C86.7813 26.8 86.8813 27.9133 87.0813 28.54C87.5213 29.8867 88.4813 30.56 89.9613 30.56ZM105.104 32H103.824C103.691 32 103.624 31.9333 103.624 31.8V30.9H103.604C103.057 31.78 102.184 32.22 100.984 32.22C99.9441 32.22 99.1307 31.8933 98.5441 31.24C97.9574 30.5867 97.6641 29.7067 97.6641 28.6V22.62C97.6641 22.4867 97.7307 22.42 97.8641 22.42H99.1441C99.2774 22.42 99.3441 22.4867 99.3441 22.62V28.2C99.3441 29.84 100.051 30.66 101.464 30.66C102.117 30.66 102.637 30.4467 103.024 30.02C103.424 29.5933 103.624 29.02 103.624 28.3V22.62C103.624 22.4867 103.691 22.42 103.824 22.42H105.104C105.237 22.42 105.304 22.4867 105.304 22.62V31.8C105.304 31.9333 105.237 32 105.104 32ZM110.065 32H108.785C108.652 32 108.585 31.9333 108.585 31.8V22.62C108.585 22.4867 108.652 22.42 108.785 22.42H110.065C110.199 22.42 110.265 22.4867 110.265 22.62V23.6H110.285C110.765 22.6667 111.612 22.2 112.825 22.2C113.612 22.2 114.265 22.44 114.785 22.92C114.879 23.0133 114.892 23.1067 114.825 23.2L114.085 24.18C114.005 24.2867 113.912 24.3 113.805 24.22C113.325 23.9133 112.832 23.76 112.325 23.76C110.952 23.76 110.265 24.6933 110.265 26.56V31.8C110.265 31.9333 110.199 32 110.065 32ZM125.798 32H124.418C124.285 32 124.218 31.9333 124.218 31.8V20.18C124.218 20.1 124.178 20.06 124.098 20.06H120.378C120.245 20.06 120.178 19.9933 120.178 19.86V18.6C120.178 18.4667 120.245 18.4 120.378 18.4H129.838C129.972 18.4 130.038 18.4667 130.038 18.6V19.86C130.038 19.9933 129.972 20.06 129.838 20.06H126.118C126.038 20.06 125.998 20.1 125.998 20.18V31.8C125.998 31.9333 125.932 32 125.798 32ZM134.372 32.22C133.399 32.22 132.579 31.9933 131.912 31.54C131.259 31.0867 130.799 30.4467 130.532 29.62C130.319 28.9533 130.212 28.1467 130.212 27.2C130.212 26.16 130.312 25.3533 130.512 24.78C130.779 23.9533 131.239 23.32 131.892 22.88C132.559 22.4267 133.352 22.2 134.272 22.2C135.192 22.2 135.979 22.4267 136.632 22.88C137.299 23.3333 137.766 23.9667 138.032 24.78C138.232 25.4067 138.332 26.32 138.332 27.52C138.332 27.6533 138.259 27.72 138.112 27.72H132.052C131.972 27.72 131.932 27.76 131.932 27.84C131.932 28.2667 131.986 28.6533 132.092 29C132.479 30.1067 133.286 30.66 134.512 30.66C135.539 30.66 136.359 30.3067 136.972 29.6C137.079 29.4933 137.179 29.48 137.272 29.56L138.092 30.3C138.186 30.38 138.192 30.4733 138.112 30.58C137.246 31.6733 135.999 32.22 134.372 32.22ZM132.052 26.38H136.492C136.572 26.38 136.612 26.34 136.612 26.26C136.612 25.82 136.566 25.46 136.472 25.18C136.139 24.18 135.406 23.68 134.272 23.68C133.139 23.68 132.406 24.18 132.072 25.18C131.979 25.46 131.932 25.82 131.932 26.26C131.932 26.34 131.972 26.38 132.052 26.38ZM148.007 32H146.827C146.693 32 146.627 31.9333 146.627 31.8V30.96H146.607C146.1 31.8 145.153 32.22 143.767 32.22C142.807 32.22 142.027 31.9733 141.427 31.48C140.84 30.9867 140.547 30.2733 140.547 29.34C140.547 28.3533 140.867 27.6133 141.507 27.12C142.16 26.6267 143.087 26.38 144.287 26.38H146.467C146.547 26.38 146.587 26.34 146.587 26.26V25.56C146.587 24.88 146.42 24.4 146.087 24.12C145.753 23.8267 145.153 23.68 144.287 23.68C143.38 23.68 142.607 23.9067 141.967 24.36C141.847 24.4533 141.753 24.4467 141.687 24.34L141.147 23.42C141.093 23.3133 141.107 23.22 141.187 23.14C141.987 22.5133 143.073 22.2 144.447 22.2C145.807 22.2 146.773 22.4533 147.347 22.96C147.92 23.4533 148.207 24.2867 148.207 25.46V31.8C148.207 31.9333 148.14 32 148.007 32ZM144.167 30.78C144.913 30.78 145.5 30.6133 145.927 30.28C146.367 29.9467 146.587 29.4867 146.587 28.9V27.84C146.587 27.76 146.547 27.72 146.467 27.72H144.547C143.72 27.72 143.113 27.8467 142.727 28.1C142.353 28.34 142.167 28.7333 142.167 29.28C142.167 30.28 142.833 30.78 144.167 30.78ZM164.918 32H163.638C163.504 32 163.438 31.9333 163.438 31.8V26.2C163.438 24.5733 162.724 23.76 161.298 23.76C160.658 23.76 160.131 23.9733 159.718 24.4C159.304 24.8267 159.098 25.3933 159.098 26.1V31.8C159.098 31.9333 159.031 32 158.898 32H157.618C157.484 32 157.418 31.9333 157.418 31.8V26.2C157.418 24.5733 156.704 23.76 155.278 23.76C154.624 23.76 154.091 23.9733 153.678 24.4C153.278 24.8267 153.078 25.3933 153.078 26.1V31.8C153.078 31.9333 153.011 32 152.878 32H151.598C151.464 32 151.398 31.9333 151.398 31.8V22.62C151.398 22.4867 151.464 22.42 151.598 22.42H152.878C153.011 22.42 153.078 22.4867 153.078 22.62V23.5H153.098C153.631 22.6333 154.524 22.2 155.778 22.2C157.084 22.2 158.018 22.7 158.578 23.7H158.598C159.318 22.7 160.351 22.2 161.698 22.2C162.791 22.2 163.631 22.5267 164.218 23.18C164.818 23.82 165.118 24.6933 165.118 25.8V31.8C165.118 31.9333 165.051 32 164.918 32Z"
          fill="white"/>
    <defs>
        <filter id="filter0_d_16_14" x="0" y="0" width="213" height="60" filterUnits="userSpaceOnUse"
                color-interpolation-filters="sRGB">
            <feFlood flood-opacity="0" result="BackgroundImageFix"/>
            <feColorMatrix in="SourceAlpha" type="matrix" values="0 0 0 0 0 0 0 0 0 0 0 0 0 0 0 0 0 0 127 0"
                           result="hardAlpha"/>
            <feOffset dx="2" dy="4"/>
            <feGaussianBlur stdDeviation="5"/>
            <feComposite in2="hardAlpha" operator="out"/>
            <feColorMatrix type="matrix" values="0 0 0 0 0 0 0 0 0 0 0 0 0 0 0 0 0 0 0.25 0"/>
            <feBlend mode="normal" in2="BackgroundImageFix" result="effect1_dropShadow_16_14"/>
            <feBlend mode="normal" in="SourceGraphic" in2="effect1_dropShadow_16_14" result="shape"/>
        </filter>
        <filter id="filter1_d_16_14" x="6" y="8" width="197" height="44" filterUnits="userSpaceOnUse"
                color-interpolation-filters="sRGB">
            <feFlood flood-opacity="0" result="BackgroundImageFix"/>
            <feColorMatrix in="SourceAlpha" type="matrix" values="0 0 0 0 0 0 0 0 0 0 0 0 0 0 0 0 0 0 127 0"
                           result="hardAlpha"/>
            <feOffset dy="4"/>
            <feGaussianBlur stdDeviation="2"/>
            <feComposite in2="hardAlpha" operator="out"/>
            <feColorMatrix type="matrix" values="0 0 0 0 0 0 0 0 0 0 0 0 0 0 0 0 0 0 0.25 0"/>
            <feBlend mode="normal" in2="BackgroundImageFix" result="effect1_dropShadow_16_14"/>
            <feBlend mode="normal" in="SourceGraphic" in2="effect1_dropShadow_16_14" result="shape"/>
        </filter>
    </defs>
</svg>
