<svg viewBox="0 0 128 77" fill="none" xmlns="http://www.w3.org/2000/svg">
    <path d="M76.7917 42.5834H75.2917C75.2917 43.4118 75.9632 44.0834 76.7917 44.0834V42.5834ZM80.9572 59.7225C80.2402 60.1373 79.9951 61.0549 80.4099 61.772C80.8247 62.4891 81.7423 62.7341 82.4594 62.3193L80.9572 59.7225ZM54.7922 44.4913C55.5799 44.7479 56.4264 44.3174 56.683 43.5297C56.9396 42.742 56.5091 41.8954 55.7214 41.6388L54.7922 44.4913ZM46.5406 62.3193C47.2577 62.7341 48.1753 62.4891 48.5901 61.772C49.0049 61.0549 48.7598 60.1373 48.0428 59.7225L46.5406 62.3193ZM64.5 47.5L65.5607 46.4394C65.2794 46.1581 64.8978 46 64.5 46C64.1022 46 63.7206 46.1581 63.4393 46.4394L64.5 47.5ZM63 69.625C63 70.4535 63.6716 71.125 64.5 71.125C65.3284 71.125 66 70.4535 66 69.625H63ZM70.8143 55.9357C71.4001 56.5215 72.3499 56.5215 72.9357 55.9357C73.5214 55.3499 73.5214 54.4002 72.9357 53.8144L70.8143 55.9357ZM56.0643 53.8144C55.4786 54.4002 55.4786 55.3499 56.0643 55.9357C56.6501 56.5215 57.5999 56.5215 58.1857 55.9357L56.0643 53.8144ZM53.7083 40.125C53.7083 34.165 58.5399 29.3334 64.5 29.3334V26.3334C56.8831 26.3334 50.7083 32.5081 50.7083 40.125H53.7083ZM64.5 29.3334C70.4601 29.3334 75.2917 34.165 75.2917 40.125H78.2917C78.2917 32.5081 72.1169 26.3334 64.5 26.3334V29.3334ZM75.2917 40.125V42.5834H78.2917V40.125H75.2917ZM50.7083 40.125V42.5834H53.7083V40.125H50.7083ZM76.7917 44.0834C81.394 44.0834 85.125 47.8143 85.125 52.4167H88.125C88.125 46.1575 83.0509 41.0834 76.7917 41.0834V44.0834ZM85.125 52.4167C85.125 55.5139 83.4391 58.2868 80.9572 59.7225L82.4594 62.3193C85.856 60.3545 88.125 56.5989 88.125 52.4167H85.125ZM43.875 52.4167C43.875 47.8143 47.606 44.0834 52.2083 44.0834V41.0834C45.9491 41.0834 40.875 46.1575 40.875 52.4167H43.875ZM52.2083 44.0834C53.1127 44.0834 53.9806 44.2269 54.7922 44.4913L55.7214 41.6388C54.6135 41.2779 53.4321 41.0834 52.2083 41.0834V44.0834ZM48.0428 59.7225C45.5609 58.2868 43.875 55.5139 43.875 52.4167H40.875C40.875 56.5989 43.144 60.3545 46.5406 62.3193L48.0428 59.7225ZM63 47.5V69.625H66V47.5H63ZM72.9357 53.8144L65.5607 46.4394L63.4393 48.5607L70.8143 55.9357L72.9357 53.8144ZM63.4393 46.4394L56.0643 53.8144L58.1857 55.9357L65.5607 48.5607L63.4393 46.4394Z"
          fill="#252933"/>
    <path d="M110.792 24.5834H109.292C109.292 25.4118 109.963 26.0834 110.792 26.0834V24.5834ZM114.957 41.7225C114.24 42.1373 113.995 43.0549 114.41 43.772C114.825 44.4891 115.742 44.7341 116.459 44.3193L114.957 41.7225ZM88.7922 26.4913C89.5799 26.7479 90.4264 26.3174 90.683 25.5297C90.9396 24.742 90.5091 23.8954 89.7214 23.6388L88.7922 26.4913ZM80.5406 44.3193C81.2577 44.7341 82.1753 44.4891 82.5901 43.772C83.0049 43.0549 82.7598 42.1373 82.0428 41.7225L80.5406 44.3193ZM98.5 29.5L99.5607 28.4394C99.2794 28.1581 98.8978 28 98.5 28C98.1022 28 97.7206 28.1581 97.4393 28.4394L98.5 29.5ZM97 51.625C97 52.4535 97.6716 53.125 98.5 53.125C99.3284 53.125 100 52.4535 100 51.625H97ZM104.814 37.9357C105.4 38.5215 106.35 38.5215 106.936 37.9357C107.521 37.3499 107.521 36.4002 106.936 35.8144L104.814 37.9357ZM90.0643 35.8144C89.4786 36.4002 89.4786 37.3499 90.0643 37.9357C90.6501 38.5215 91.5999 38.5215 92.1857 37.9357L90.0643 35.8144ZM87.7083 22.125C87.7083 16.165 92.5399 11.3334 98.5 11.3334V8.33337C90.8831 8.33337 84.7083 14.5081 84.7083 22.125H87.7083ZM98.5 11.3334C104.46 11.3334 109.292 16.165 109.292 22.125H112.292C112.292 14.5081 106.117 8.33337 98.5 8.33337V11.3334ZM109.292 22.125V24.5834H112.292V22.125H109.292ZM84.7083 22.125V24.5834H87.7083V22.125H84.7083ZM110.792 26.0834C115.394 26.0834 119.125 29.8143 119.125 34.4167H122.125C122.125 28.1575 117.051 23.0834 110.792 23.0834V26.0834ZM119.125 34.4167C119.125 37.5139 117.439 40.2868 114.957 41.7225L116.459 44.3193C119.856 42.3545 122.125 38.5989 122.125 34.4167H119.125ZM77.875 34.4167C77.875 29.8143 81.606 26.0834 86.2083 26.0834V23.0834C79.9491 23.0834 74.875 28.1575 74.875 34.4167H77.875ZM86.2083 26.0834C87.1127 26.0834 87.9806 26.2269 88.7922 26.4913L89.7214 23.6388C88.6135 23.2779 87.4321 23.0834 86.2083 23.0834V26.0834ZM82.0428 41.7225C79.5609 40.2868 77.875 37.5139 77.875 34.4167H74.875C74.875 38.5989 77.144 42.3545 80.5406 44.3193L82.0428 41.7225ZM97 29.5V51.625H100V29.5H97ZM106.936 35.8144L99.5607 28.4394L97.4393 30.5607L104.814 37.9357L106.936 35.8144ZM97.4393 28.4394L90.0643 35.8144L92.1857 37.9357L99.5607 30.5607L97.4393 28.4394Z"
          fill="#252933"/>
    <path d="M41.7917 24.5834H40.2917C40.2917 25.4118 40.9632 26.0834 41.7917 26.0834V24.5834ZM45.9572 41.7225C45.2402 42.1373 44.9951 43.0549 45.4099 43.772C45.8247 44.4891 46.7423 44.7341 47.4594 44.3193L45.9572 41.7225ZM19.7922 26.4913C20.5799 26.7479 21.4264 26.3174 21.683 25.5297C21.9396 24.742 21.5091 23.8954 20.7214 23.6388L19.7922 26.4913ZM11.5406 44.3193C12.2577 44.7341 13.1753 44.4891 13.5901 43.772C14.0049 43.0549 13.7598 42.1373 13.0428 41.7225L11.5406 44.3193ZM29.5 29.5L30.5607 28.4394C30.2794 28.1581 29.8978 28 29.5 28C29.1022 28 28.7206 28.1581 28.4393 28.4394L29.5 29.5ZM28 51.625C28 52.4535 28.6716 53.125 29.5 53.125C30.3284 53.125 31 52.4535 31 51.625H28ZM35.8143 37.9357C36.4001 38.5215 37.3499 38.5215 37.9357 37.9357C38.5214 37.3499 38.5214 36.4002 37.9357 35.8144L35.8143 37.9357ZM21.0643 35.8144C20.4786 36.4002 20.4786 37.3499 21.0643 37.9357C21.6501 38.5215 22.5999 38.5215 23.1857 37.9357L21.0643 35.8144ZM18.7083 22.125C18.7083 16.165 23.5399 11.3334 29.5 11.3334V8.33337C21.8831 8.33337 15.7083 14.5081 15.7083 22.125H18.7083ZM29.5 11.3334C35.4601 11.3334 40.2917 16.165 40.2917 22.125H43.2917C43.2917 14.5081 37.1169 8.33337 29.5 8.33337V11.3334ZM40.2917 22.125V24.5834H43.2917V22.125H40.2917ZM15.7083 22.125V24.5834H18.7083V22.125H15.7083ZM41.7917 26.0834C46.394 26.0834 50.125 29.8143 50.125 34.4167H53.125C53.125 28.1575 48.0509 23.0834 41.7917 23.0834V26.0834ZM50.125 34.4167C50.125 37.5139 48.4391 40.2868 45.9572 41.7225L47.4594 44.3193C50.856 42.3545 53.125 38.5989 53.125 34.4167H50.125ZM8.875 34.4167C8.875 29.8143 12.606 26.0834 17.2083 26.0834V23.0834C10.9491 23.0834 5.875 28.1575 5.875 34.4167H8.875ZM17.2083 26.0834C18.1127 26.0834 18.9806 26.2269 19.7922 26.4913L20.7214 23.6388C19.6135 23.2779 18.4321 23.0834 17.2083 23.0834V26.0834ZM13.0428 41.7225C10.5609 40.2868 8.875 37.5139 8.875 34.4167H5.875C5.875 38.5989 8.14404 42.3545 11.5406 44.3193L13.0428 41.7225ZM28 29.5V51.625H31V29.5H28ZM37.9357 35.8144L30.5607 28.4394L28.4393 30.5607L35.8143 37.9357L37.9357 35.8144ZM28.4393 28.4394L21.0643 35.8144L23.1857 37.9357L30.5607 30.5607L28.4393 28.4394Z"
          fill="#252933"/>
</svg>
