<svg viewBox="0 0 42 42" fill="none" xmlns="http://www.w3.org/2000/svg">
    <circle cx="20.875" cy="20.9751" r="20.625" fill="#B7B7B7" stroke="#D7D7D7" stroke-width="0.5"/>
    <rect x="1.80001" y="1.8001" width="38.19" height="38.19" rx="19.095" fill="#E6E6E6" stroke="#C20000" stroke-width="0.4"/>
    <g filter="url(#filter0_d_16_14)">
        <path d="M22.4937 21.247H26.0846L26.6485 17.5769H22.4929V15.571C22.4929 14.0463 22.9881 12.6943 24.4056 12.6943H26.6835V9.49149C26.2833 9.43712 25.4369 9.31808 23.8375 9.31808C20.4977 9.31808 18.5397 11.0925 18.5397 15.1352V17.5769H15.1065V21.247H18.5397V31.3347C19.2197 31.4375 19.9083 31.5073 20.6153 31.5073C21.2543 31.5073 21.878 31.4486 22.4937 31.3648V21.247Z" fill="#231F20"/>
        <path d="M22.4937 21.147H22.3937V21.247V31.2773C21.8089 31.3545 21.2185 31.4073 20.6153 31.4073C19.9442 31.4073 19.2887 31.3438 18.6397 31.2485V21.247V21.147H18.5397H15.2065V17.6769H18.5397H18.6397V17.5769V15.1352C18.6397 13.1285 19.1257 11.7034 20.0085 10.7797C20.8905 9.85692 22.1846 9.41808 23.8375 9.41808C25.3235 9.41808 26.1557 9.52115 26.5835 9.57883V12.5943H24.4056C23.6574 12.5943 23.1478 12.9548 22.8308 13.5114C22.5176 14.0615 22.3929 14.8006 22.3929 15.571V17.5769V17.6769H22.4929H26.5319L25.9988 21.147H22.4937Z" stroke="#BFD6FF" stroke-width="0.2"/>
    </g>
    <defs>
        <filter id="filter0_d_16_14" x="11.1065" y="9.31808" filterUnits="userSpaceOnUse" color-interpolation-filters="sRGB">
            <feFlood flood-opacity="0" result="BackgroundImageFix"/>
            <feColorMatrix in="SourceAlpha" type="matrix" values="0 0 0 0 0 0 0 0 0 0 0 0 0 0 0 0 0 0 127 0" result="hardAlpha"/>
            <feOffset dy="4"/>
            <feGaussianBlur stdDeviation="2"/>
            <feComposite in2="hardAlpha" operator="out"/>
            <feColorMatrix type="matrix" values="0 0 0 0 0 0 0 0 0 0 0 0 0 0 0 0 0 0 0.15 0"/>
            <feBlend mode="normal" in2="BackgroundImageFix" result="effect1_dropShadow_16_14"/>
            <feBlend mode="normal" in="SourceGraphic" in2="effect1_dropShadow_16_14" result="shape"/>
        </filter>
    </defs>
</svg>
