<svg viewBox="0 0 42 42" fill="none" xmlns="http://www.w3.org/2000/svg">
    <circle cx="20.875" cy="20.8751" r="20.625" fill="#B7B7B7" stroke="#D7D7D7" stroke-width="0.5"/>
    <rect x="1.80001" y="1.80001" width="38.1882" height="38.1882" rx="19.0941" fill="#E6E6E6"/>
    <rect x="1.80001" y="1.80001" width="38.1882" height="38.1882" rx="19.0941" stroke="black" stroke-width="0.4"/>
    <rect x="1.80001" y="1.80001" width="38.1882" height="38.1882" rx="19.0941" stroke="#C20000" stroke-width="0.4"/>
    <g filter="url(#filter0_d_16_14)">
        <path d="M20.8941 12.9905C23.4512 12.9905 23.7999 12.9905 24.8459 12.9905C25.7758 12.9905 26.2407 13.223 26.5894 13.3392C27.0543 13.5717 27.403 13.6879 27.7517 14.0366C28.1004 14.3853 28.3328 14.734 28.4491 15.1989C28.5653 15.5476 28.6815 16.0125 28.7977 16.9423C28.7977 17.9884 28.7977 18.2208 28.7977 20.8941C28.7977 23.5674 28.7977 23.7999 28.7977 24.8459C28.7977 25.7758 28.5653 26.2407 28.4491 26.5894C28.2166 27.0543 28.1004 27.403 27.7517 27.7517C27.403 28.1004 27.0543 28.3328 26.5894 28.4491C26.2407 28.5653 25.7758 28.6815 24.8459 28.7977C23.7999 28.7977 23.5674 28.7977 20.8941 28.7977C18.2208 28.7977 17.9884 28.7977 16.9423 28.7977C16.0125 28.7977 15.5476 28.5653 15.1989 28.4491C14.734 28.2166 14.3853 28.1004 14.0366 27.7517C13.6879 27.403 13.4554 27.0543 13.3392 26.5894C13.223 26.2407 13.1067 25.7758 12.9905 24.8459C12.9905 23.7999 12.9905 23.5674 12.9905 20.8941C12.9905 18.2208 12.9905 17.9884 12.9905 16.9423C12.9905 16.0125 13.223 15.5476 13.3392 15.1989C13.5717 14.734 13.6879 14.3853 14.0366 14.0366C14.3853 13.6879 14.734 13.4554 15.1989 13.3392C15.5476 13.223 16.0125 13.1067 16.9423 12.9905C17.9884 12.9905 18.3371 12.9905 20.8941 12.9905ZM20.8941 11.2471C18.2208 11.2471 17.9884 11.2471 16.9423 11.2471C15.8963 11.2471 15.1989 11.4795 14.6177 11.712C14.0366 11.9444 13.4554 12.2931 12.8743 12.8743C12.2931 13.4554 12.0607 13.9204 11.712 14.6177C11.4795 15.1989 11.3633 15.8963 11.2471 16.9423C11.2471 17.9884 11.2471 18.3371 11.2471 20.8941C11.2471 23.5674 11.2471 23.7999 11.2471 24.8459C11.2471 25.892 11.4795 26.5894 11.712 27.1705C11.9444 27.7517 12.2931 28.3328 12.8743 28.914C13.4554 29.4951 13.9204 29.7276 14.6177 30.0763C15.1989 30.3087 15.8963 30.425 16.9423 30.5412C17.9884 30.5412 18.3371 30.5412 20.8941 30.5412C23.4512 30.5412 23.7999 30.5412 24.8459 30.5412C25.892 30.5412 26.5894 30.3087 27.1705 30.0763C27.7517 29.8438 28.3328 29.4951 28.914 28.914C29.4951 28.3328 29.7276 27.8679 30.0763 27.1705C30.3087 26.5894 30.425 25.892 30.5412 24.8459C30.5412 23.7999 30.5412 23.4512 30.5412 20.8941C30.5412 18.3371 30.5412 17.9884 30.5412 16.9423C30.5412 15.8963 30.3087 15.1989 30.0763 14.6177C29.8438 14.0366 29.4951 13.4554 28.914 12.8743C28.3328 12.2931 27.8679 12.0607 27.1705 11.712C26.5894 11.4795 25.892 11.3633 24.8459 11.2471C23.7999 11.2471 23.5674 11.2471 20.8941 11.2471Z" fill="#231F20"/>
        <path d="M20.8941 15.8963C18.1046 15.8963 15.8963 18.1046 15.8963 20.8941C15.8963 23.6836 18.1046 25.892 20.8941 25.892C23.6836 25.892 25.892 23.6836 25.892 20.8941C25.892 18.1046 23.6836 15.8963 20.8941 15.8963ZM20.8941 24.1486C19.1507 24.1486 17.6397 22.7538 17.6397 20.8941C17.6397 19.1507 19.0345 17.6397 20.8941 17.6397C22.6376 17.6397 24.1486 19.0345 24.1486 20.8941C24.1486 22.6376 22.6376 24.1486 20.8941 24.1486Z" fill="#231F20"/>
        <path d="M26.0082 16.9423C26.6502 16.9423 27.1705 16.4219 27.1705 15.78C27.1705 15.1381 26.6502 14.6177 26.0082 14.6177C25.3663 14.6177 24.8459 15.1381 24.8459 15.78C24.8459 16.4219 25.3663 16.9423 26.0082 16.9423Z" fill="#231F20"/>
    </g>
    <defs>
        <filter id="filter0_d_16_14" x="7.24707" y="11.2471" filterUnits="userSpaceOnUse" color-interpolation-filters="sRGB">
            <feFlood flood-opacity="0" result="BackgroundImageFix"/>
            <feColorMatrix in="SourceAlpha" type="matrix" values="0 0 0 0 0 0 0 0 0 0 0 0 0 0 0 0 0 0 127 0" result="hardAlpha"/>
            <feOffset dy="4"/>
            <feGaussianBlur stdDeviation="2"/>
            <feComposite in2="hardAlpha" operator="out"/>
            <feColorMatrix type="matrix" values="0 0 0 0 0 0 0 0 0 0 0 0 0 0 0 0 0 0 0.15 0"/>
            <feBlend mode="normal" in2="BackgroundImageFix" result="effect1_dropShadow_16_14"/>
            <feBlend mode="normal" in="SourceGraphic" in2="effect1_dropShadow_16_14" result="shape"/>
        </filter>
    </defs>
</svg>
