<svg viewBox="0 0 43 42" fill="none" xmlns="http://www.w3.org/2000/svg">
    <circle cx="21.225" cy="20.975" r="20.625" fill="#B7B7B7" stroke="#D7D7D7" stroke-width="0.5"/>
    <rect x="2.24117" y="1.80001" width="38.1882" height="38.1882" rx="19.0941" fill="#E6E6E6"/>
    <rect x="2.24117" y="1.80001" width="38.1882" height="38.1882" rx="19.0941" stroke="black" stroke-width="0.4"/>
    <rect x="2.24117" y="1.80001" width="38.1882" height="38.1882" rx="19.0941" stroke="#C20000" stroke-width="0.4"/>
    <g filter="url(#filter0_d_16_14)">
        <path d="M29.0529 21.6123V26.9333H25.9382V21.9367C25.9382 20.7038 25.4839 19.8602 24.3808 19.8602C23.5372 19.8602 23.0181 20.4442 22.8234 20.9633C22.7585 21.158 22.6937 21.4176 22.6937 21.742V26.9333H19.5789C19.5789 26.9333 19.6438 18.4975 19.5789 17.6539H22.6937V18.9517C23.083 18.3028 23.8617 17.3944 25.4839 17.3944C27.4956 17.3944 29.0529 18.7571 29.0529 21.6123ZM16.3344 13.1765C15.2961 13.1765 14.5823 13.8903 14.5823 14.7987C14.5823 15.7072 15.2312 16.421 16.2695 16.421C17.3726 16.421 18.0215 15.7072 18.0215 14.7987C18.0864 13.8254 17.4375 13.1765 16.3344 13.1765ZM14.777 26.9333H17.8918V17.6539H14.777V26.9333Z" fill="#231F20"/>
    </g>
    <defs>
        <filter id="filter0_d_16_14" x="10.5823" y="13.1765" filterUnits="userSpaceOnUse" color-interpolation-filters="sRGB">
            <feFlood flood-opacity="0" result="BackgroundImageFix"/>
            <feColorMatrix in="SourceAlpha" type="matrix" values="0 0 0 0 0 0 0 0 0 0 0 0 0 0 0 0 0 0 127 0" result="hardAlpha"/>
            <feOffset dy="4"/>
            <feGaussianBlur stdDeviation="2"/>
            <feComposite in2="hardAlpha" operator="out"/>
            <feColorMatrix type="matrix" values="0 0 0 0 0 0 0 0 0 0 0 0 0 0 0 0 0 0 0.15 0"/>
            <feBlend mode="normal" in2="BackgroundImageFix" result="effect1_dropShadow_16_14"/>
            <feBlend mode="normal" in="SourceGraphic" in2="effect1_dropShadow_16_14" result="shape"/>
        </filter>
    </defs>
</svg>
