<svg viewBox="0 0 95 95" fill="none" xmlns="http://www.w3.org/2000/svg">
    <path d="M79.1667 79.1667L62.5547 62.5548M71.25 41.5625C71.25 25.1665 57.9585 11.875 41.5625 11.875C25.1665 11.875 11.875 25.1665 11.875 41.5625C11.875 57.9585 25.1665 71.25 41.5625 71.25C57.9585 71.25 71.25 57.9585 71.25 41.5625Z" stroke="#252933" stroke-width="3" stroke-linecap="round" stroke-linejoin="round"/>
    <path d="M19.8987 54.5609H18.3987C18.3987 55.3893 19.0702 56.0609 19.8987 56.0609V54.5609ZM23.75 56.0609C24.5784 56.0609 25.25 55.3893 25.25 54.5609C25.25 53.7325 24.5784 53.0609 23.75 53.0609V56.0609ZM26.0496 46.6278C26.8518 46.4213 27.3348 45.6036 27.1283 44.8013C26.9218 43.999 26.1041 43.516 25.3018 43.7225L26.0496 46.6278ZM29.0272 40.241C29.8082 40.5171 30.6652 40.1077 30.9413 39.3267C31.2174 38.5456 30.808 37.6886 30.0269 37.4125L29.0272 40.241ZM30.0269 29.3444C30.808 29.0684 31.2174 28.2114 30.9413 27.4303C30.6652 26.6492 29.8082 26.2399 29.0272 26.5159L30.0269 29.3444ZM62.2635 54.5609V56.0609C63.0919 56.0609 63.7635 55.3893 63.7635 54.5609H62.2635ZM58.4122 53.0609C57.5837 53.0609 56.9122 53.7325 56.9122 54.5609C56.9122 55.3893 57.5837 56.0609 58.4122 56.0609V53.0609ZM56.8604 43.7225C56.0581 43.516 55.2403 43.999 55.0338 44.8013C54.8273 45.6036 55.3103 46.4213 56.1126 46.6278L56.8604 43.7225ZM53.135 26.5159C52.3539 26.2399 51.4969 26.6492 51.2209 27.4303C50.9448 28.2114 51.3542 29.0684 52.1353 29.3444L53.135 26.5159ZM52.1353 37.4125C51.3542 37.6886 50.9448 38.5456 51.2209 39.3267C51.4969 40.1077 52.3539 40.5171 53.135 40.241L52.1353 37.4125ZM52.6351 54.5609V56.0609C53.4636 56.0609 54.1351 55.3893 54.1351 54.5609H52.6351ZM29.527 54.5609H28.027C28.027 55.3893 28.6986 56.0609 29.527 56.0609V54.5609ZM18.3987 52.6352V54.5609H21.3987V52.6352H18.3987ZM19.8987 56.0609H23.75V53.0609H19.8987V56.0609ZM21.3987 52.6352C21.3987 49.747 23.374 47.3165 26.0496 46.6278L25.3018 43.7225C21.3329 44.744 18.3987 48.3451 18.3987 52.6352H21.3987ZM24.1757 33.3785C24.1757 36.5493 26.2028 39.2428 29.0272 40.241L30.0269 37.4125C28.3637 36.8247 27.1757 35.2384 27.1757 33.3785H24.1757ZM29.0272 26.5159C26.2028 27.5142 24.1757 30.2077 24.1757 33.3785H27.1757C27.1757 31.5186 28.3637 29.9323 30.0269 29.3444L29.0272 26.5159ZM60.7635 52.6352V54.5609H63.7635V52.6352H60.7635ZM62.2635 53.0609H58.4122V56.0609H62.2635V53.0609ZM63.7635 52.6352C63.7635 48.3451 60.8292 44.744 56.8604 43.7225L56.1126 46.6278C58.7882 47.3165 60.7635 49.747 60.7635 52.6352H63.7635ZM52.1353 29.3444C53.7985 29.9323 54.9865 31.5186 54.9865 33.3785H57.9865C57.9865 30.2077 55.9594 27.5142 53.135 26.5159L52.1353 29.3444ZM54.9865 33.3785C54.9865 35.2384 53.7985 36.8247 52.1353 37.4125L53.135 40.241C55.9594 39.2428 57.9865 36.5493 57.9865 33.3785H54.9865ZM37.2297 46.4325H44.9324V43.4325H37.2297V46.4325ZM51.1351 52.6352V54.5609H54.1351V52.6352H51.1351ZM31.027 54.5609V52.6352H28.027V54.5609H31.027ZM44.9324 46.4325C48.3581 46.4325 51.1351 49.2096 51.1351 52.6352H54.1351C54.1351 47.5527 50.0149 43.4325 44.9324 43.4325V46.4325ZM37.2297 43.4325C32.1472 43.4325 28.027 47.5527 28.027 52.6352H31.027C31.027 49.2096 33.8041 46.4325 37.2297 46.4325V43.4325ZM52.6351 53.0609H29.527V56.0609H52.6351V53.0609ZM45.3581 33.3785C45.3581 35.7406 43.4432 37.6555 41.0811 37.6555V40.6555C45.1001 40.6555 48.3581 37.3975 48.3581 33.3785H45.3581ZM41.0811 37.6555C38.7189 37.6555 36.8041 35.7406 36.8041 33.3785H33.8041C33.8041 37.3975 37.0621 40.6555 41.0811 40.6555V37.6555ZM36.8041 33.3785C36.8041 31.0163 38.7189 29.1014 41.0811 29.1014V26.1014C37.0621 26.1014 33.8041 29.3595 33.8041 33.3785H36.8041ZM41.0811 29.1014C43.4432 29.1014 45.3581 31.0163 45.3581 33.3785H48.3581C48.3581 29.3595 45.1001 26.1014 41.0811 26.1014V29.1014Z" fill="#252933"/>
</svg>
