<svg viewBox="0 0 42 42" fill="none" xmlns="http://www.w3.org/2000/svg">
    <circle cx="20.875" cy="20.875" r="20.625" fill="#B7B7B7" stroke="#D7D7D7" stroke-width="0.5"/>
    <rect x="1.70001" y="1.70001" width="38.39" height="38.39" rx="19.195" fill="#EDEDED" stroke="#C20000" stroke-width="0.2"/>
    <g filter="url(#filter0_d_16_14)">
        <path fill-rule="evenodd" clip-rule="evenodd" d="M12.4655 27.7031C12.0871 27.5911 11.7418 27.3919 11.4587 27.1223C11.1757 26.8528 10.9633 26.5207 10.8394 26.1541C10.1312 24.2595 9.92139 16.3481 11.2852 14.7863C11.7392 14.2782 12.38 13.9654 13.0687 13.9158C16.7275 13.5317 28.0317 13.5829 29.33 14.0438C29.6952 14.1594 30.0288 14.3543 30.3058 14.6136C30.5829 14.873 30.7963 15.1903 30.9299 15.5416C31.7036 17.5002 31.7298 24.6179 30.825 26.4997C30.585 26.9896 30.1831 27.3864 29.6841 27.6263C28.3202 28.292 14.2752 28.2792 12.4655 27.7031ZM18.275 23.9906L24.8319 20.6622L18.275 17.3082V23.9906Z" fill="#231F20"/>
    </g>
    <defs>
        <filter id="filter0_d_16_14" x="6.28276" y="13.6594" filterUnits="userSpaceOnUse" color-interpolation-filters="sRGB">
            <feFlood flood-opacity="0" result="BackgroundImageFix"/>
            <feColorMatrix in="SourceAlpha" type="matrix" values="0 0 0 0 0 0 0 0 0 0 0 0 0 0 0 0 0 0 127 0" result="hardAlpha"/>
            <feOffset dy="4"/>
            <feGaussianBlur stdDeviation="2"/>
            <feComposite in2="hardAlpha" operator="out"/>
            <feColorMatrix type="matrix" values="0 0 0 0 0 0 0 0 0 0 0 0 0 0 0 0 0 0 0.15 0"/>
            <feBlend mode="normal" in2="BackgroundImageFix" result="effect1_dropShadow_16_14"/>
            <feBlend mode="normal" in="SourceGraphic" in2="effect1_dropShadow_16_14" result="shape"/>
        </filter>
    </defs>
</svg>
