<svg viewBox="0 0 86 57" fill="none" xmlns="http://www.w3.org/2000/svg">
    <path d="M77.4395 31.5637L69.9312 9.03685L85.4433 2.57015L84.3711 0L67.6651 6.95811C67.3407 7.09375 67.0794 7.34695 66.9335 7.66706C66.7876 7.98717 66.7679 8.35059 66.8784 8.6846L67.3551 10.1154L52.2864 13.5944L42.5236 7.08278C42.3658 6.97738 42.1881 6.90539 42.0015 6.87123C41.8149 6.83708 41.6232 6.84149 41.4384 6.88418L23.8268 10.9677L19.3903 8.74693L19.4048 8.69764C19.5155 8.36364 19.496 8.00009 19.3501 7.67989C19.2042 7.35969 18.9427 7.10652 18.618 6.97116L1.91204 0.0130476L0.839844 2.5832L16.3519 9.03685L8.84798 31.5637L1.81786 29.2168L0.936921 31.8566L9.2899 34.6427C9.43287 34.6929 9.58321 34.7188 9.73472 34.7195C10.0274 34.7196 10.3127 34.6275 10.5501 34.4563C10.7875 34.2851 10.9651 34.0435 11.0576 33.7657L11.9414 31.1129L12.521 31.4028V35.8734L11.7965 36.3184C11.6314 36.4199 11.4892 36.5547 11.3789 36.7142C11.2686 36.8737 11.1928 37.0543 11.1561 37.2447C11.1179 37.435 11.1205 37.6312 11.1637 37.8203C11.2069 38.0095 11.2898 38.1873 11.4068 38.3421L15.5825 43.9129C15.7893 44.1885 16.0908 44.3775 16.4288 44.4437C16.7667 44.5098 17.1172 44.4483 17.4125 44.271L19.5859 42.9663L23.8877 49.4214C24.0888 49.7228 24.3993 49.9339 24.7534 50.0099C25.1075 50.086 25.4773 50.021 25.7843 49.8288L27.8244 48.5546L30.8193 53.5398C30.9158 53.7015 31.0444 53.8418 31.1972 53.952C31.3499 54.0622 31.5236 54.1399 31.7075 54.1805C31.8066 54.2043 31.9083 54.216 32.0103 54.2153C32.285 54.2151 32.5536 54.1339 32.7826 53.9819L36.7917 51.3074L40.6415 56.4433C40.7706 56.617 40.9387 56.7578 41.1323 56.8545C41.3258 56.9512 41.5394 57.001 41.7557 57C42.0304 56.9994 42.2989 56.9183 42.5279 56.7666L45.7547 54.6154C46.1421 55.0039 46.6024 55.3121 47.1091 55.5224C47.6158 55.7327 48.159 55.841 48.7076 55.841C49.2561 55.841 49.7993 55.7327 50.306 55.5224C50.8127 55.3121 51.273 55.0039 51.6604 54.6154L53.2934 52.9817C53.7331 52.5362 54.0665 51.9971 54.2685 51.4045C55.0093 51.6792 55.8136 51.7339 56.5847 51.5621C57.3558 51.3903 58.0609 50.9994 58.6152 50.4362L60.2481 48.8025C60.6879 48.357 61.0212 47.8178 61.2233 47.2253C61.964 47.5 62.7683 47.5547 63.5395 47.3829C64.3106 47.2111 65.0157 46.8201 65.57 46.257L67.2029 44.6232C67.7584 44.0639 68.1438 43.3583 68.3144 42.5885C68.4849 41.8187 68.4336 41.0162 68.1664 40.2744C68.7595 40.0713 69.2996 39.7379 69.7472 39.2988L71.3801 37.6651C72.1036 36.9359 72.5326 35.9651 72.5847 34.9389C72.6369 33.9127 72.3085 32.9033 71.6627 32.1044L74.0679 30.3011L75.227 33.7628C75.3202 34.0399 75.498 34.2808 75.7353 34.4514C75.9727 34.6221 76.2576 34.7138 76.5499 34.7137C76.6977 34.713 76.8445 34.6886 76.9845 34.6413L85.3375 31.8551L84.4566 29.2154L77.4395 31.5637ZM51.333 51.0247L49.7001 52.6584C49.4353 52.9132 49.0822 53.0555 48.7148 53.0555C48.3474 53.0555 47.9943 52.9132 47.7295 52.6584L46.101 51.0247C45.8401 50.763 45.6937 50.4085 45.6937 50.039C45.6937 49.6694 45.8401 49.3149 46.101 49.0532L47.7339 47.4195C47.8627 47.2894 48.0162 47.1863 48.1854 47.1163C48.3546 47.0464 48.5361 47.011 48.7191 47.0122C49.0885 47.012 49.4429 47.1585 49.7044 47.4195L51.333 49.0532C51.5924 49.3157 51.7379 49.6699 51.7379 50.039C51.7379 50.4081 51.5924 50.7623 51.333 51.0247ZM58.2878 46.8469L56.6548 48.4806C56.39 48.7354 56.0369 48.8777 55.6696 48.8777C55.3022 48.8777 54.9491 48.7354 54.6843 48.4806L51.6749 45.4539C51.4141 45.1922 51.2676 44.8377 51.2676 44.4681C51.2676 44.0986 51.4141 43.7441 51.6749 43.4824L53.3079 41.8487C53.4367 41.7185 53.5902 41.6154 53.7594 41.5455C53.9286 41.4755 54.11 41.4401 54.2931 41.4414C54.6625 41.4412 55.0169 41.5877 55.2784 41.8487L58.2994 44.874C58.5588 45.1364 58.7043 45.4907 58.7043 45.8598C58.7043 46.2289 58.5588 46.5831 58.2994 46.8455L58.2878 46.8469ZM65.2425 42.6692L63.6096 44.3029C63.3448 44.5577 62.9917 44.7 62.6244 44.7C62.257 44.7 61.9039 44.5577 61.6391 44.3029L57.2387 39.883C56.9779 39.6213 56.8314 39.2669 56.8314 38.8973C56.8314 38.5277 56.9779 38.1732 57.2387 37.9116L58.8717 36.2779C59.0005 36.1477 59.154 36.0446 59.3232 35.9747C59.4924 35.9047 59.6739 35.8693 59.8569 35.8705C60.2263 35.8703 60.5807 36.0168 60.8422 36.2779L63.8632 39.3032L65.2556 40.6963C65.515 40.9587 65.6605 41.3129 65.6605 41.682C65.6605 42.0511 65.515 42.4053 65.2556 42.6677L65.2425 42.6692ZM69.4183 35.7111L67.7854 37.3448C67.5206 37.5995 67.1675 37.7418 66.8001 37.7418C66.4328 37.7418 66.0797 37.5995 65.8149 37.3448L62.7939 34.3194C62.533 34.0578 62.3866 33.7033 62.3866 33.3337C62.3866 32.9641 62.533 32.6097 62.7939 32.348L64.4268 30.7143C64.6884 30.4533 65.0427 30.3068 65.4121 30.3068C65.7815 30.3068 66.1358 30.4533 66.3973 30.7143L69.4183 33.7396C69.6777 34.002 69.8232 34.3562 69.8232 34.7253C69.8232 35.0944 69.6777 35.4486 69.4183 35.7111ZM69.7182 30.1011L68.3649 28.7471C67.5813 27.9646 66.5193 27.5251 65.4121 27.5251C64.3049 27.5251 63.2429 27.9646 62.4592 28.7471L60.8263 30.3809C60.0908 31.1216 59.661 32.1121 59.6222 33.1554C58.5982 33.1893 57.6233 33.6026 56.8867 34.3151L55.2537 35.9488C54.5183 36.6895 54.0885 37.68 54.0497 38.7233C53.0257 38.7572 52.0508 39.1705 51.3142 39.883L49.6812 41.5167C48.9495 42.259 48.5234 43.2493 48.4873 44.2913C47.4633 44.3252 46.4884 44.7385 45.7518 45.451L44.1188 47.0847C43.4064 47.8039 42.9795 48.7575 42.9174 49.7682C42.8553 50.7788 43.1623 51.7776 43.7813 52.5787L42.0686 53.721L39.1027 49.7708L41.1312 48.4198L39.5852 46.1004L32.4464 50.8609L30.1803 47.0832L36.9178 42.8707L35.4471 40.502L25.4496 46.7484L21.9722 41.5298L31.3279 35.9126L29.8934 33.5236L17.0459 41.2341L14.5538 37.9L38.3058 23.3706L36.8569 20.9918L15.3072 34.1687V30.5447C15.3071 30.2859 15.235 30.0324 15.0992 29.8122C14.9633 29.5921 14.769 29.4141 14.5379 29.298L12.8325 28.4442L18.4948 11.4128L23.0328 13.6756C23.3226 13.8197 23.6533 13.8592 23.9688 13.7872L41.4818 9.74426L53.1688 17.5373L56.6215 25.5943L55.7449 25.9465C54.7715 26.3298 53.6901 26.336 52.7123 25.9639C51.7345 25.5918 50.9306 24.8681 50.4578 23.9345L48.5743 20.1655C48.4797 19.9759 48.343 19.8105 48.1748 19.6819C48.0065 19.5533 47.8111 19.4648 47.6035 19.4233L40.6487 18.0302L40.1025 20.7598L46.3951 22.021L47.9759 25.1826C48.5617 26.3395 49.4568 27.3113 50.5615 27.99C51.6662 28.6686 52.9374 29.0276 54.2337 29.0269C55.1086 29.026 55.9753 28.8593 56.7881 28.5355L58.9919 27.6541C59.1645 27.5853 59.3215 27.4825 59.4537 27.3519C59.5858 27.2213 59.6905 27.0655 59.7616 26.8938C59.8326 26.7221 59.8685 26.5378 59.8673 26.352C59.866 26.1661 59.8275 25.9824 59.7541 25.8117L55.5783 16.0616C55.5285 15.9509 55.4653 15.8467 55.3899 15.7514L68.2606 12.7783L73.171 27.5179L69.7182 30.1011Z" fill="#EDEDED"/>
</svg>
