<svg viewBox="0 0 22 22" fill="none" xmlns="http://www.w3.org/2000/svg">
    <circle cx="10.7668" cy="10.7668" r="10.6668" fill="#EAEAEA" stroke="#C20000" stroke-width="0.2"/>
    <g clip-path="url(#clip0_893_663)">
        <path d="M10.918 17.8118C9.53356 17.8118 8.18019 17.4012 7.02904 16.6321C5.8779 15.8629 4.98069 14.7696 4.45088 13.4906C3.92106 12.2115 3.78244 10.804 4.05254 9.44614C4.32263 8.08827 4.98932 6.84099 5.96829 5.86202C6.94725 4.88306 8.19453 4.21637 9.5524 3.94627C10.9103 3.67618 12.3177 3.8148 13.5968 4.34461C14.8759 4.87443 15.9691 5.77163 16.7383 6.92278C17.5075 8.07392 17.918 9.4273 17.918 10.8118C17.916 12.6677 17.1779 14.447 15.8656 15.7593C14.5532 17.0716 12.7739 17.8098 10.918 17.8118V17.8118ZM10.918 5.56177C9.87968 5.56177 8.86465 5.86968 8.00129 6.44656C7.13793 7.02343 6.46503 7.84337 6.06767 8.80268C5.67031 9.76199 5.56634 10.8176 5.76891 11.836C5.97148 12.8544 6.4715 13.7899 7.20572 14.5241C7.93995 15.2583 8.87541 15.7583 9.89381 15.9609C10.9122 16.1635 11.9678 16.0595 12.9271 15.6621C13.8864 15.2648 14.7064 14.5919 15.2832 13.7285C15.8601 12.8652 16.168 11.8501 16.168 10.8118C16.1663 9.41991 15.6127 8.08553 14.6285 7.10134C13.6443 6.11714 12.3099 5.56347 10.918 5.56177V5.56177Z"
              fill="#212121"/>
        <path d="M12.3502 14.7095H10.6002V11.1296H9.80457V9.37964H10.9181C11.2979 9.37995 11.6619 9.53093 11.9304 9.79943C12.1989 10.0679 12.3499 10.432 12.3502 10.8117V14.7095Z"
              fill="#212121"/>
        <path d="M11.0837 8.75053C11.6365 8.75053 12.0847 8.30237 12.0847 7.74953C12.0847 7.1967 11.6365 6.74854 11.0837 6.74854C10.5309 6.74854 10.0827 7.1967 10.0827 7.74953C10.0827 8.30237 10.5309 8.75053 11.0837 8.75053Z"
              fill="#212121"/>
    </g>
    <defs>
        <clipPath id="clip0_893_663">
            <rect width="14" height="14" fill="white" transform="translate(3.91803 3.81177)"/>
        </clipPath>
    </defs>
</svg>
