<svg viewBox="0 0 162 57" fill="none" xmlns="http://www.w3.org/2000/svg">
    <g clip-path="url(#clip0_16_14)">
        <path d="M51 35C53.1756 35 55.3023 34.3549 57.1113 33.1462C58.9202 31.9375 60.3301 30.2195 61.1627 28.2095C61.9952 26.1995 62.2131 23.9878 61.7886 21.854C61.3642 19.7202 60.3166 17.7602 58.7782 16.2218C57.2398 14.6835 55.2798 13.6358 53.146 13.2114C51.0122 12.7869 48.8005 13.0048 46.7905 13.8373C44.7805 14.6699 43.0625 16.0798 41.8538 17.8887C40.6451 19.6977 40 21.8244 40 24C40.0029 26.9165 41.1628 29.7127 43.225 31.775C45.2873 33.8372 48.0835 34.9971 51 35ZM51 16.6667C52.4504 16.6667 53.8682 17.0968 55.0742 17.9026C56.2801 18.7084 57.2201 19.8537 57.7751 21.1937C58.3302 22.5337 58.4754 24.0081 58.1924 25.4307C57.9095 26.8532 57.211 28.1599 56.1855 29.1855C55.1599 30.211 53.8532 30.9095 52.4307 31.1924C51.0081 31.4754 49.5336 31.3302 48.1937 30.7751C46.8537 30.2201 45.7084 29.2801 44.9026 28.0742C44.0968 26.8682 43.6667 25.4504 43.6667 24C43.6667 22.0551 44.4393 20.1898 45.8146 18.8146C47.1898 17.4393 49.0551 16.6667 51 16.6667Z" fill="#EDEDED"/>
        <path d="M51 38.668C46.6254 38.6728 42.4314 40.4128 39.3381 43.5061C36.2448 46.5994 34.5049 50.7934 34.5 55.168C34.5 55.6542 34.6932 56.1205 35.037 56.4643C35.3808 56.8081 35.8471 57.0013 36.3333 57.0013C36.8196 57.0013 37.2859 56.8081 37.6297 56.4643C37.9735 56.1205 38.1667 55.6542 38.1667 55.168C38.1667 51.7644 39.5187 48.5001 41.9255 46.0934C44.3322 43.6867 47.5964 42.3346 51 42.3346C54.4036 42.3346 57.6678 43.6867 60.0745 46.0934C62.4813 48.5001 63.8333 51.7644 63.8333 55.168C63.8333 55.6542 64.0265 56.1205 64.3703 56.4643C64.7141 56.8081 65.1804 57.0013 65.6667 57.0013C66.1529 57.0013 66.6192 56.8081 66.963 56.4643C67.3068 56.1205 67.5 55.6542 67.5 55.168C67.4951 50.7934 65.7552 46.5994 62.6619 43.5061C59.5686 40.4128 55.3746 38.6728 51 38.668Z" fill="#EDEDED"/>
    </g>
    <g clip-path="url(#clip1_16_14)">
        <path d="M111 35C113.176 35 115.302 34.3549 117.111 33.1462C118.92 31.9375 120.33 30.2195 121.163 28.2095C121.995 26.1995 122.213 23.9878 121.789 21.854C121.364 19.7202 120.317 17.7602 118.778 16.2218C117.24 14.6835 115.28 13.6358 113.146 13.2114C111.012 12.7869 108.8 13.0048 106.79 13.8373C104.78 14.6699 103.063 16.0798 101.854 17.8887C100.645 19.6977 100 21.8244 100 24C100.003 26.9165 101.163 29.7127 103.225 31.775C105.287 33.8372 108.084 34.9971 111 35ZM111 16.6667C112.45 16.6667 113.868 17.0968 115.074 17.9026C116.28 18.7084 117.22 19.8537 117.775 21.1937C118.33 22.5337 118.475 24.0081 118.192 25.4307C117.909 26.8532 117.211 28.1599 116.185 29.1855C115.16 30.211 113.853 30.9095 112.431 31.1924C111.008 31.4754 109.534 31.3302 108.194 30.7751C106.854 30.2201 105.708 29.2801 104.903 28.0742C104.097 26.8682 103.667 25.4504 103.667 24C103.667 22.0551 104.439 20.1898 105.815 18.8146C107.19 17.4393 109.055 16.6667 111 16.6667Z" fill="#EDEDED"/>
        <path d="M111 38.668C106.625 38.6728 102.431 40.4128 99.3381 43.5061C96.2448 46.5994 94.5049 50.7934 94.5 55.168C94.5 55.6542 94.6932 56.1205 95.037 56.4643C95.3808 56.8081 95.8471 57.0013 96.3333 57.0013C96.8196 57.0013 97.2859 56.8081 97.6297 56.4643C97.9735 56.1205 98.1667 55.6542 98.1667 55.168C98.1667 51.7644 99.5187 48.5001 101.925 46.0934C104.332 43.6867 107.596 42.3346 111 42.3346C114.404 42.3346 117.668 43.6867 120.075 46.0934C122.481 48.5001 123.833 51.7644 123.833 55.168C123.833 55.6542 124.026 56.1205 124.37 56.4643C124.714 56.8081 125.18 57.0013 125.667 57.0013C126.153 57.0013 126.619 56.8081 126.963 56.4643C127.307 56.1205 127.5 55.6542 127.5 55.168C127.495 50.7934 125.755 46.5994 122.662 43.5061C119.569 40.4128 115.375 38.6728 111 38.668Z" fill="#EDEDED"/>
    </g>
    <g clip-path="url(#clip2_16_14)">
        <path d="M81 23C83.1756 23 85.3023 22.3549 87.1113 21.1462C88.9202 19.9375 90.3301 18.2195 91.1627 16.2095C91.9952 14.1995 92.2131 11.9878 91.7886 9.85401C91.3642 7.72022 90.3166 5.76021 88.7782 4.22183C87.2398 2.68345 85.2798 1.6358 83.146 1.21137C81.0122 0.786929 78.8005 1.00477 76.7905 1.83733C74.7805 2.66989 73.0625 4.07979 71.8538 5.88873C70.6451 7.69767 70 9.82441 70 12C70.0029 14.9165 71.1628 17.7127 73.225 19.775C75.2873 21.8372 78.0835 22.9971 81 23ZM81 4.66667C82.4504 4.66667 83.8682 5.09676 85.0742 5.90256C86.2801 6.70836 87.2201 7.85367 87.7751 9.19366C88.3302 10.5337 88.4754 12.0081 88.1924 13.4307C87.9095 14.8532 87.211 16.1599 86.1855 17.1855C85.1599 18.211 83.8532 18.9095 82.4307 19.1924C81.0081 19.4754 79.5336 19.3302 78.1937 18.7751C76.8537 18.2201 75.7084 17.2801 74.9026 16.0742C74.0968 14.8682 73.6667 13.4504 73.6667 12C73.6667 10.0551 74.4393 8.18982 75.8146 6.81456C77.1898 5.43929 79.0551 4.66667 81 4.66667Z" fill="#EDEDED"/>
        <path d="M81 26.668C76.6254 26.6728 72.4314 28.4128 69.3381 31.5061C66.2448 34.5994 64.5049 38.7934 64.5 43.168C64.5 43.6542 64.6932 44.1205 65.037 44.4643C65.3808 44.8081 65.8471 45.0013 66.3333 45.0013C66.8196 45.0013 67.2859 44.8081 67.6297 44.4643C67.9735 44.1205 68.1667 43.6542 68.1667 43.168C68.1667 39.7644 69.5187 36.5001 71.9255 34.0934C74.3322 31.6867 77.5964 30.3346 81 30.3346C84.4036 30.3346 87.6678 31.6867 90.0745 34.0934C92.4813 36.5001 93.8333 39.7644 93.8333 43.168C93.8333 43.6542 94.0265 44.1205 94.3703 44.4643C94.7141 44.8081 95.1804 45.0013 95.6667 45.0013C96.1529 45.0013 96.6192 44.8081 96.963 44.4643C97.3068 44.1205 97.5 43.6542 97.5 43.168C97.4951 38.7934 95.7552 34.5994 92.6619 31.5061C89.5686 28.4128 85.3746 26.6728 81 26.668Z" fill="#EDEDED"/>
    </g>
    <g clip-path="url(#clip3_16_14)">
        <path d="M22 22C24.1756 22 26.3023 21.3549 28.1113 20.1462C29.9202 18.9375 31.3301 17.2195 32.1627 15.2095C32.9952 13.1995 33.2131 10.9878 32.7886 8.85401C32.3642 6.72022 31.3166 4.76021 29.7782 3.22183C28.2398 1.68345 26.2798 0.635804 24.146 0.211367C22.0122 -0.213071 19.8005 0.00476615 17.7905 0.83733C15.7805 1.66989 14.0625 3.07979 12.8538 4.88873C11.6451 6.69767 11 8.82441 11 11C11.0029 13.9165 12.1628 16.7127 14.225 18.775C16.2873 20.8372 19.0835 21.9971 22 22ZM22 3.66667C23.4504 3.66667 24.8682 4.09676 26.0742 4.90256C27.2801 5.70836 28.2201 6.85367 28.7751 8.19366C29.3302 9.53365 29.4754 11.0081 29.1924 12.4307C28.9095 13.8532 28.211 15.1599 27.1855 16.1855C26.1599 17.211 24.8532 17.9095 23.4307 18.1924C22.0081 18.4754 20.5336 18.3302 19.1937 17.7751C17.8537 17.2201 16.7084 16.2801 15.9026 15.0742C15.0968 13.8682 14.6667 12.4504 14.6667 11C14.6667 9.05508 15.4393 7.18982 16.8146 5.81456C18.1898 4.43929 20.0551 3.66667 22 3.66667Z" fill="#EDEDED"/>
        <path d="M22 25.668C17.6254 25.6728 13.4314 27.4128 10.3381 30.5061C7.2448 33.5994 5.50485 37.7934 5.5 42.168C5.5 42.6542 5.69315 43.1205 6.03697 43.4643C6.38079 43.8081 6.8471 44.0013 7.33333 44.0013C7.81956 44.0013 8.28588 43.8081 8.6297 43.4643C8.97351 43.1205 9.16667 42.6542 9.16667 42.168C9.16667 38.7644 10.5187 35.5001 12.9255 33.0934C15.3322 30.6867 18.5964 29.3346 22 29.3346C25.4036 29.3346 28.6678 30.6867 31.0745 33.0934C33.4813 35.5001 34.8333 38.7644 34.8333 42.168C34.8333 42.6542 35.0265 43.1205 35.3703 43.4643C35.7141 43.8081 36.1804 44.0013 36.6667 44.0013C37.1529 44.0013 37.6192 43.8081 37.963 43.4643C38.3068 43.1205 38.5 42.6542 38.5 42.168C38.4951 37.7934 36.7552 33.5994 33.6619 30.5061C30.5686 27.4128 26.3746 25.6728 22 25.668Z" fill="#EDEDED"/>
    </g>
    <g clip-path="url(#clip4_16_14)">
        <path d="M140 22C142.176 22 144.302 21.3549 146.111 20.1462C147.92 18.9375 149.33 17.2195 150.163 15.2095C150.995 13.1995 151.213 10.9878 150.789 8.85401C150.364 6.72022 149.317 4.76021 147.778 3.22183C146.24 1.68345 144.28 0.635804 142.146 0.211367C140.012 -0.213071 137.8 0.00476615 135.79 0.83733C133.78 1.66989 132.063 3.07979 130.854 4.88873C129.645 6.69767 129 8.82441 129 11C129.003 13.9165 130.163 16.7127 132.225 18.775C134.287 20.8372 137.084 21.9971 140 22ZM140 3.66667C141.45 3.66667 142.868 4.09676 144.074 4.90256C145.28 5.70836 146.22 6.85367 146.775 8.19366C147.33 9.53365 147.475 11.0081 147.192 12.4307C146.909 13.8532 146.211 15.1599 145.185 16.1855C144.16 17.211 142.853 17.9095 141.431 18.1924C140.008 18.4754 138.534 18.3302 137.194 17.7751C135.854 17.2201 134.708 16.2801 133.903 15.0742C133.097 13.8682 132.667 12.4504 132.667 11C132.667 9.05508 133.439 7.18982 134.815 5.81456C136.19 4.43929 138.055 3.66667 140 3.66667Z" fill="#EDEDED"/>
        <path d="M140 25.668C135.625 25.6728 131.431 27.4128 128.338 30.5061C125.245 33.5994 123.505 37.7934 123.5 42.168C123.5 42.6542 123.693 43.1205 124.037 43.4643C124.381 43.8081 124.847 44.0013 125.333 44.0013C125.82 44.0013 126.286 43.8081 126.63 43.4643C126.974 43.1205 127.167 42.6542 127.167 42.168C127.167 38.7644 128.519 35.5001 130.925 33.0934C133.332 30.6867 136.596 29.3346 140 29.3346C143.404 29.3346 146.668 30.6867 149.075 33.0934C151.481 35.5001 152.833 38.7644 152.833 42.168C152.833 42.6542 153.026 43.1205 153.37 43.4643C153.714 43.8081 154.18 44.0013 154.667 44.0013C155.153 44.0013 155.619 43.8081 155.963 43.4643C156.307 43.1205 156.5 42.6542 156.5 42.168C156.495 37.7934 154.755 33.5994 151.662 30.5061C148.569 27.4128 144.375 25.6728 140 25.668Z" fill="#EDEDED"/>
    </g>
    <defs>
        <clipPath id="clip0_16_14">
            <rect width="44" height="44" fill="white" transform="translate(29 13)"/>
        </clipPath>
        <clipPath id="clip1_16_14">
            <rect width="44" height="44" fill="white" transform="translate(89 13)"/>
        </clipPath>
        <clipPath id="clip2_16_14">
            <rect width="44" height="44" fill="white" transform="translate(59 1)"/>
        </clipPath>
        <clipPath id="clip3_16_14">
            <rect width="44" height="44" fill="white"/>
        </clipPath>
        <clipPath id="clip4_16_14">
            <rect width="44" height="44" fill="white" transform="translate(118)"/>
        </clipPath>
    </defs>
</svg>
