<svg viewBox="0 0 162 57" fill="none" xmlns="http://www.w3.org/2000/svg">
    <g clip-path="url(#clip0_16_14)">
        <path d="M51 34.9999C53.1756 34.9999 55.3023 34.3547 57.1113 33.146C58.9202 31.9374 60.3301 30.2194 61.1627 28.2094C61.9952 26.1994 62.2131 23.9877 61.7886 21.8539C61.3642 19.7201 60.3166 17.7601 58.7782 16.2217C57.2398 14.6833 55.2798 13.6357 53.146 13.2112C51.0122 12.7868 48.8005 13.0046 46.7905 13.8372C44.7805 14.6698 43.0625 16.0797 41.8538 17.8886C40.6451 19.6976 40 21.8243 40 23.9999C40.0029 26.9164 41.1628 29.7126 43.225 31.7748C45.2873 33.8371 48.0835 34.997 51 34.9999ZM51 16.6665C52.4504 16.6665 53.8682 17.0966 55.0742 17.9024C56.2801 18.7082 57.2201 19.8535 57.7751 21.1935C58.3302 22.5335 58.4754 24.008 58.1924 25.4305C57.9095 26.8531 57.211 28.1597 56.1855 29.1853C55.1599 30.2109 53.8532 30.9094 52.4307 31.1923C51.0081 31.4753 49.5336 31.33 48.1937 30.775C46.8537 30.22 45.7084 29.28 44.9026 28.0741C44.0968 26.8681 43.6667 25.4503 43.6667 23.9999C43.6667 22.055 44.4393 20.1897 45.8146 18.8144C47.1898 17.4392 49.0551 16.6665 51 16.6665Z"
              fill="#252933"/>
        <path d="M51 38.6677C46.6254 38.6726 42.4314 40.4125 39.3381 43.5058C36.2448 46.5991 34.5049 50.7931 34.5 55.1677C34.5 55.654 34.6932 56.1203 35.037 56.4641C35.3808 56.8079 35.8471 57.0011 36.3333 57.0011C36.8196 57.0011 37.2859 56.8079 37.6297 56.4641C37.9735 56.1203 38.1667 55.654 38.1667 55.1677C38.1667 51.7641 39.5187 48.4999 41.9255 46.0932C44.3322 43.6865 47.5964 42.3344 51 42.3344C54.4036 42.3344 57.6678 43.6865 60.0745 46.0932C62.4813 48.4999 63.8333 51.7641 63.8333 55.1677C63.8333 55.654 64.0265 56.1203 64.3703 56.4641C64.7141 56.8079 65.1804 57.0011 65.6667 57.0011C66.1529 57.0011 66.6192 56.8079 66.963 56.4641C67.3068 56.1203 67.5 55.654 67.5 55.1677C67.4951 50.7931 65.7552 46.5991 62.6619 43.5058C59.5686 40.4125 55.3746 38.6726 51 38.6677Z"
              fill="#252933"/>
    </g>
    <g clip-path="url(#clip1_16_14)">
        <path d="M111 34.9999C113.176 34.9999 115.302 34.3547 117.111 33.146C118.92 31.9374 120.33 30.2194 121.163 28.2094C121.995 26.1994 122.213 23.9877 121.789 21.8539C121.364 19.7201 120.317 17.7601 118.778 16.2217C117.24 14.6833 115.28 13.6357 113.146 13.2112C111.012 12.7868 108.8 13.0046 106.79 13.8372C104.78 14.6698 103.063 16.0797 101.854 17.8886C100.645 19.6976 100 21.8243 100 23.9999C100.003 26.9164 101.163 29.7126 103.225 31.7748C105.287 33.8371 108.084 34.997 111 34.9999ZM111 16.6665C112.45 16.6665 113.868 17.0966 115.074 17.9024C116.28 18.7082 117.22 19.8535 117.775 21.1935C118.33 22.5335 118.475 24.008 118.192 25.4305C117.909 26.8531 117.211 28.1597 116.185 29.1853C115.16 30.2109 113.853 30.9094 112.431 31.1923C111.008 31.4753 109.534 31.33 108.194 30.775C106.854 30.22 105.708 29.28 104.903 28.0741C104.097 26.8681 103.667 25.4503 103.667 23.9999C103.667 22.055 104.439 20.1897 105.815 18.8144C107.19 17.4392 109.055 16.6665 111 16.6665Z"
              fill="#252933"/>
        <path d="M111 38.6677C106.625 38.6726 102.431 40.4125 99.3381 43.5058C96.2448 46.5991 94.5049 50.7931 94.5 55.1677C94.5 55.654 94.6932 56.1203 95.037 56.4641C95.3808 56.8079 95.8471 57.0011 96.3333 57.0011C96.8196 57.0011 97.2859 56.8079 97.6297 56.4641C97.9735 56.1203 98.1667 55.654 98.1667 55.1677C98.1667 51.7641 99.5187 48.4999 101.925 46.0932C104.332 43.6865 107.596 42.3344 111 42.3344C114.404 42.3344 117.668 43.6865 120.075 46.0932C122.481 48.4999 123.833 51.7641 123.833 55.1677C123.833 55.654 124.026 56.1203 124.37 56.4641C124.714 56.8079 125.18 57.0011 125.667 57.0011C126.153 57.0011 126.619 56.8079 126.963 56.4641C127.307 56.1203 127.5 55.654 127.5 55.1677C127.495 50.7931 125.755 46.5991 122.662 43.5058C119.569 40.4125 115.375 38.6726 111 38.6677Z"
              fill="#252933"/>
    </g>
    <g clip-path="url(#clip2_16_14)">
        <path d="M81 22.9999C83.1756 22.9999 85.3023 22.3547 87.1113 21.146C88.9202 19.9374 90.3301 18.2194 91.1627 16.2094C91.9952 14.1994 92.2131 11.9877 91.7886 9.85389C91.3642 7.7201 90.3166 5.76009 88.7782 4.22171C87.2398 2.68333 85.2798 1.63568 83.146 1.21124C81.0122 0.786807 78.8005 1.00464 76.7905 1.83721C74.7805 2.66977 73.0625 4.07967 71.8538 5.88861C70.6451 7.69755 70 9.82429 70 11.9999C70.0029 14.9164 71.1628 17.7126 73.225 19.7748C75.2873 21.8371 78.0835 22.997 81 22.9999ZM81 4.66655C82.4504 4.66655 83.8682 5.09664 85.0742 5.90244C86.2801 6.70824 87.2201 7.85355 87.7751 9.19354C88.3302 10.5335 88.4754 12.008 88.1924 13.4305C87.9095 14.8531 87.211 16.1597 86.1855 17.1853C85.1599 18.2109 83.8532 18.9094 82.4307 19.1923C81.0081 19.4753 79.5336 19.33 78.1937 18.775C76.8537 18.22 75.7084 17.28 74.9026 16.0741C74.0968 14.8681 73.6667 13.4503 73.6667 11.9999C73.6667 10.055 74.4393 8.1897 75.8146 6.81443C77.1898 5.43917 79.0551 4.66655 81 4.66655Z"
              fill="#252933"/>
        <path d="M81 26.6677C76.6254 26.6726 72.4314 28.4125 69.3381 31.5058C66.2448 34.5991 64.5049 38.7931 64.5 43.1677C64.5 43.654 64.6932 44.1203 65.037 44.4641C65.3808 44.8079 65.8471 45.0011 66.3333 45.0011C66.8196 45.0011 67.2859 44.8079 67.6297 44.4641C67.9735 44.1203 68.1667 43.654 68.1667 43.1677C68.1667 39.7641 69.5187 36.4999 71.9255 34.0932C74.3322 31.6865 77.5964 30.3344 81 30.3344C84.4036 30.3344 87.6678 31.6865 90.0745 34.0932C92.4813 36.4999 93.8333 39.7641 93.8333 43.1677C93.8333 43.654 94.0265 44.1203 94.3703 44.4641C94.7141 44.8079 95.1804 45.0011 95.6667 45.0011C96.1529 45.0011 96.6192 44.8079 96.963 44.4641C97.3068 44.1203 97.5 43.654 97.5 43.1677C97.4951 38.7931 95.7552 34.5991 92.6619 31.5058C89.5686 28.4125 85.3746 26.6726 81 26.6677Z"
              fill="#252933"/>
    </g>
    <g clip-path="url(#clip3_16_14)">
        <path d="M22 21.9999C24.1756 21.9999 26.3023 21.3547 28.1113 20.146C29.9202 18.9374 31.3301 17.2194 32.1627 15.2094C32.9952 13.1994 33.2131 10.9877 32.7886 8.85389C32.3642 6.7201 31.3166 4.76009 29.7782 3.22171C28.2398 1.68333 26.2798 0.635682 24.146 0.211245C22.0122 -0.213193 19.8005 0.00464408 17.7905 0.837208C15.7805 1.66977 14.0625 3.07967 12.8538 4.88861C11.6451 6.69755 11 8.82429 11 10.9999C11.0029 13.9164 12.1628 16.7126 14.225 18.7748C16.2873 20.8371 19.0835 21.997 22 21.9999ZM22 3.66655C23.4504 3.66655 24.8682 4.09664 26.0742 4.90244C27.2801 5.70824 28.2201 6.85355 28.7751 8.19354C29.3302 9.53353 29.4754 11.008 29.1924 12.4305C28.9095 13.8531 28.211 15.1597 27.1855 16.1853C26.1599 17.2109 24.8532 17.9094 23.4307 18.1923C22.0081 18.4753 20.5336 18.33 19.1937 17.775C17.8537 17.22 16.7084 16.28 15.9026 15.0741C15.0968 13.8681 14.6667 12.4503 14.6667 10.9999C14.6667 9.05496 15.4393 7.1897 16.8146 5.81443C18.1898 4.43917 20.0551 3.66655 22 3.66655Z"
              fill="#252933"/>
        <path d="M22 25.6677C17.6254 25.6726 13.4314 27.4125 10.3381 30.5058C7.2448 33.5991 5.50485 37.7931 5.5 42.1677C5.5 42.654 5.69315 43.1203 6.03697 43.4641C6.38079 43.8079 6.8471 44.0011 7.33333 44.0011C7.81956 44.0011 8.28588 43.8079 8.6297 43.4641C8.97351 43.1203 9.16667 42.654 9.16667 42.1677C9.16667 38.7641 10.5187 35.4999 12.9255 33.0932C15.3322 30.6865 18.5964 29.3344 22 29.3344C25.4036 29.3344 28.6678 30.6865 31.0745 33.0932C33.4813 35.4999 34.8333 38.7641 34.8333 42.1677C34.8333 42.654 35.0265 43.1203 35.3703 43.4641C35.7141 43.8079 36.1804 44.0011 36.6667 44.0011C37.1529 44.0011 37.6192 43.8079 37.963 43.4641C38.3068 43.1203 38.5 42.654 38.5 42.1677C38.4951 37.7931 36.7552 33.5991 33.6619 30.5058C30.5686 27.4125 26.3746 25.6726 22 25.6677Z"
              fill="#252933"/>
    </g>
    <g clip-path="url(#clip4_16_14)">
        <path d="M140 21.9999C142.176 21.9999 144.302 21.3547 146.111 20.146C147.92 18.9374 149.33 17.2194 150.163 15.2094C150.995 13.1994 151.213 10.9877 150.789 8.85389C150.364 6.7201 149.317 4.76009 147.778 3.22171C146.24 1.68333 144.28 0.635682 142.146 0.211245C140.012 -0.213193 137.8 0.00464408 135.79 0.837208C133.78 1.66977 132.063 3.07967 130.854 4.88861C129.645 6.69755 129 8.82429 129 10.9999C129.003 13.9164 130.163 16.7126 132.225 18.7748C134.287 20.8371 137.084 21.997 140 21.9999ZM140 3.66655C141.45 3.66655 142.868 4.09664 144.074 4.90244C145.28 5.70824 146.22 6.85355 146.775 8.19354C147.33 9.53353 147.475 11.008 147.192 12.4305C146.909 13.8531 146.211 15.1597 145.185 16.1853C144.16 17.2109 142.853 17.9094 141.431 18.1923C140.008 18.4753 138.534 18.33 137.194 17.775C135.854 17.22 134.708 16.28 133.903 15.0741C133.097 13.8681 132.667 12.4503 132.667 10.9999C132.667 9.05496 133.439 7.1897 134.815 5.81443C136.19 4.43917 138.055 3.66655 140 3.66655Z"
              fill="#252933"/>
        <path d="M140 25.6677C135.625 25.6726 131.431 27.4125 128.338 30.5058C125.245 33.5991 123.505 37.7931 123.5 42.1677C123.5 42.654 123.693 43.1203 124.037 43.4641C124.381 43.8079 124.847 44.0011 125.333 44.0011C125.82 44.0011 126.286 43.8079 126.63 43.4641C126.974 43.1203 127.167 42.654 127.167 42.1677C127.167 38.7641 128.519 35.4999 130.925 33.0932C133.332 30.6865 136.596 29.3344 140 29.3344C143.404 29.3344 146.668 30.6865 149.075 33.0932C151.481 35.4999 152.833 38.7641 152.833 42.1677C152.833 42.654 153.026 43.1203 153.37 43.4641C153.714 43.8079 154.18 44.0011 154.667 44.0011C155.153 44.0011 155.619 43.8079 155.963 43.4641C156.307 43.1203 156.5 42.654 156.5 42.1677C156.495 37.7931 154.755 33.5991 151.662 30.5058C148.569 27.4125 144.375 25.6726 140 25.6677Z"
              fill="#252933"/>
    </g>
    <defs>
        <clipPath id="clip0_16_14">
            <rect width="44" height="44" fill="white" transform="translate(29 13)"/>
        </clipPath>
        <clipPath id="clip1_16_14">
            <rect width="44" height="44" fill="white" transform="translate(89 13)"/>
        </clipPath>
        <clipPath id="clip2_16_14">
            <rect width="44" height="44" fill="white" transform="translate(59 1)"/>
        </clipPath>
        <clipPath id="clip3_16_14">
            <rect width="44" height="44" fill="white"/>
        </clipPath>
        <clipPath id="clip4_16_14">
            <rect width="44" height="44" fill="white" transform="translate(118)"/>
        </clipPath>
    </defs>
</svg>
